<?xml version="1.0" encoding="utf-8"?>
<!-- Generator: Adobe Illustrator 16.0.0, SVG Export Plug-In . SVG Version: 6.00 Build 0)  -->
<!DOCTYPE svg PUBLIC "-//W3C//DTD SVG 1.1//EN" "http://www.w3.org/Graphics/SVG/1.1/DTD/svg11.dtd">
<svg version="1.1" xmlns="http://www.w3.org/2000/svg" xmlns:xlink="http://www.w3.org/1999/xlink" x="0px" y="0px"
	 width="449.693px" height="680.284px" viewBox="6.564 7.577 449.693 680.284" enable-background="new 6.564 7.577 449.693 680.284"
	 xml:space="preserve">
<g id="Layer_1">
	<g id="Layer_1_1_" display="none">
		<g display="inline">
			<g>
				
					<text transform="matrix(1 0 0 1 -1195.5977 96.6445)" fill="none" stroke="#000000" font-family="'MyriadPro-Regular'" font-size="12">1</text>
				
					<text transform="matrix(1 0 0 1 -1195.5977 311.3633)" fill="none" stroke="#000000" font-family="'MyriadPro-Regular'" font-size="12">6</text>
				
					<text transform="matrix(1 0 0 1 -1195.5977 526.082)" fill="none" stroke="#000000" font-family="'MyriadPro-Regular'" font-size="12">11</text>
				
					<text transform="matrix(1 0 0 1 -1195.5977 740.7988)" fill="none" stroke="#000000" font-family="'MyriadPro-Regular'" font-size="12">16</text>
				
					<text transform="matrix(1 0 0 1 -1195.5977 955.5176)" fill="none" stroke="#000000" font-family="'MyriadPro-Regular'" font-size="12">21</text>
			</g>
			<g>
				
					<text transform="matrix(1 0 0 1 -551.4443 96.6445)" fill="none" stroke="#000000" font-family="'MyriadPro-Regular'" font-size="12">4</text>
				
					<text transform="matrix(1 0 0 1 -551.4443 311.3633)" fill="none" stroke="#000000" font-family="'MyriadPro-Regular'" font-size="12">9</text>
				
					<text transform="matrix(1 0 0 1 -551.4443 526.082)" fill="none" stroke="#000000" font-family="'MyriadPro-Regular'" font-size="12">14</text>
				
					<text transform="matrix(1 0 0 1 -551.4443 740.7988)" fill="none" stroke="#000000" font-family="'MyriadPro-Regular'" font-size="12">19</text>
				
					<text transform="matrix(1 0 0 1 -551.4443 955.5176)" fill="none" stroke="#000000" font-family="'MyriadPro-Regular'" font-size="12">24</text>
			</g>
			<g>
				
					<text transform="matrix(1 0 0 1 -336.7266 96.6445)" fill="none" stroke="#000000" font-family="'MyriadPro-Regular'" font-size="12">5</text>
				
					<text transform="matrix(1 0 0 1 -336.7266 311.3633)" fill="none" stroke="#000000" font-family="'MyriadPro-Regular'" font-size="12">10</text>
				
					<text transform="matrix(1 0 0 1 -336.7266 526.082)" fill="none" stroke="#000000" font-family="'MyriadPro-Regular'" font-size="12">15</text>
				
					<text transform="matrix(1 0 0 1 -336.7266 740.7988)" fill="none" stroke="#000000" font-family="'MyriadPro-Regular'" font-size="12">20</text>
				
					<text transform="matrix(1 0 0 1 -336.7266 955.5176)" fill="none" stroke="#000000" font-family="'MyriadPro-Regular'" font-size="12">25</text>
			</g>
			<g>
				
					<text transform="matrix(1 0 0 1 -766.1621 93.6445)" fill="none" stroke="#000000" font-family="'MyriadPro-Regular'" font-size="12">3</text>
				
					<text transform="matrix(1 0 0 1 -766.1621 308.3633)" fill="none" stroke="#000000" font-family="'MyriadPro-Regular'" font-size="12">8</text>
				
					<text transform="matrix(1 0 0 1 -766.1621 523.082)" fill="none" stroke="#000000" font-family="'MyriadPro-Regular'" font-size="12">13</text>
				
					<text transform="matrix(1 0 0 1 -766.1621 737.7988)" fill="none" stroke="#000000" font-family="'MyriadPro-Regular'" font-size="12">18</text>
				
					<text transform="matrix(1 0 0 1 -766.1621 952.5176)" fill="none" stroke="#000000" font-family="'MyriadPro-Regular'" font-size="12">23</text>
			</g>
			<g>
				
					<text transform="matrix(1 0 0 1 -980.8799 93.6445)" fill="none" stroke="#000000" font-family="'MyriadPro-Regular'" font-size="12">2</text>
				
					<text transform="matrix(1 0 0 1 -980.8799 308.3633)" fill="none" stroke="#000000" font-family="'MyriadPro-Regular'" font-size="12">7</text>
				
					<text transform="matrix(1 0 0 1 -980.8799 523.082)" fill="none" stroke="#000000" font-family="'MyriadPro-Regular'" font-size="12">12</text>
				
					<text transform="matrix(1 0 0 1 -980.8799 737.7988)" fill="none" stroke="#000000" font-family="'MyriadPro-Regular'" font-size="12">17</text>
				
					<text transform="matrix(1 0 0 1 -980.8799 952.5176)" fill="none" stroke="#000000" font-family="'MyriadPro-Regular'" font-size="12">22</text>
			</g>
		</g>
		<text transform="matrix(1 0 0 1 -481.0918 -19.1875)" display="inline" font-family="'ArialMT'" font-size="52">Agendi.</text>
		<text transform="matrix(1 0 0 1 -313.0293 -19.1875)" display="inline" font-family="'ArialMT'" font-size="31">NINJALOGO</text>
		<text transform="matrix(1 0 0 1 -187.8218 18.0117)" display="inline" fill="#515151" font-family="'ArialMT'" font-size="31">v1</text>
	</g>
	<g id="logo_not_merged" display="none">
		<polygon display="inline" stroke="#FFFFFF" stroke-width="2" stroke-miterlimit="10" points="319.291,441.975 268.041,397.592 
			319.291,353.209 421.791,353.209 473.041,397.592 421.791,441.975 		"/>
		<path display="inline" fill="none" stroke="#FFFFFF" stroke-width="2" stroke-miterlimit="10" d="M319.291,441.975
			c0,0,92.405-15.576,94.405-19.076s28.521-45.313,27.762-52.655"/>
		<path display="inline" stroke="#FFFFFF" stroke-width="2" stroke-miterlimit="10" d="M531.85,72.366l-69.892-40.352l17.738-11.618
			c0,0-75.078-33.563-108.168-40.058c-8.262-3.021-17.531-2.304-25.301,2.181l-155.62,89.847c-9.282,5.358-15,15.263-15,25.98
			v179.695c0,10.718,5.718,41.346,15,46.704l155.62,89.847c9.282,5.359,20.72,5.359,30,0l155.62-89.847
			c9.281-5.358,15-35.985,15-46.704V98.347C546.85,87.629,541.132,77.725,531.85,72.366z"/>
		<path display="inline" fill="#FFFFFF" d="M517.976,287.227c0,6.627-3.369,8.328-12,12L366.453,353.21l-151.46-53.983
			c-8.1-3.164-12-5.373-12-12v-64.125c0-6.627,5.372-12,12-12l151.46,53.125l139.521-53.125c6.629,0,12,5.373,12,12L517.976,287.227
			L517.976,287.227z"/>
		<path display="inline" fill="none" stroke="#FFFFFF" stroke-width="2" stroke-linecap="square" stroke-miterlimit="10" d="
			M366.452,245.641l139.521-53.125c6.627,0,12,5.373,12,12l-3.188,87.188"/>
		<path display="inline" fill="none" stroke="#FFFFFF" stroke-width="2" stroke-miterlimit="10" d="M205.119,282.447l-2.127-77.932
			c0-6.627,5.372-12,12-12l151.46,53.125"/>
		<g display="inline">
			<path d="M408.101,310.529c0,8.285,15.519,9.816,23.667,8.334c14.666-2.668,23.703-41.043,23.703-41.043
				S408.101,302.246,408.101,310.529z"/>
			<circle fill="#FFFFFF" cx="426.786" cy="302.113" r="6"/>
		</g>
		<polygon display="inline" stroke="#FFFFFF" stroke-miterlimit="10" points="392.483,332.292 384.451,313.343 591.118,168.113 		
			"/>
		<g display="inline">
			<path d="M319.472,310.529c0,8.285-15.517,9.816-23.667,8.334c-14.666-2.668-23.703-41.043-23.703-41.043
				S319.472,302.246,319.472,310.529z"/>
			<circle fill="#FFFFFF" cx="300.786" cy="302.113" r="6"/>
		</g>
		<polygon display="inline" stroke="#FFFFFF" stroke-miterlimit="10" points="338.953,334.382 346.985,315.434 140.318,170.203 		
			"/>
		<path display="inline" fill="none" stroke="#000000" stroke-width="4" stroke-linecap="square" stroke-miterlimit="10" d="
			M361.65,327.673c5.391-9.604,9.646,0,9.646,0"/>
		<path display="inline" fill="none" stroke="#000000" stroke-width="4" stroke-miterlimit="10" d="M394.048,327.673
			c0,0-10.596-18.06-10.846-19.56s5.595-13,10.846-20.834"/>
	</g>
	<g id="ninja_head" display="none">
		<g display="inline">
			<g>
				<path fill="#151819" d="M870.966-45.093c-5.17,2.984-8.382,8.547-8.382,14.516v54.773l14.84,10.43l-0.133-4.86
					c0-4.089,3.314-7.402,7.387-7.402h0.098l0.093,0.032l85.864,30.117l79.183-30.149h0.104c4.072,0,7.388,3.313,7.388,7.387
					l-0.292,7.979l15.847-11.135v-57.172c0-5.969-3.211-11.531-8.381-14.516l-39.838-23l0.531-0.349l9.813-6.427l-57.629-21.18
					l-7.148-2.627l-11.061,2.284L870.966-45.093z"/>
				<path d="M884.678,33.491l86.063,30.188l79.277-30.188c2.581,0,4.825,1.436,5.983,3.549l0.268-7.311
					c-0.001-3.392-2.749-6.175-6.146-6.229l-79.71,30.35l-0.107-0.284l-85.721-30.065c-3.402,0.051-6.154,2.834-6.154,6.249
					l0.155,5.689l0.808,0.567C880.641,34.474,882.545,33.491,884.678,33.491z"/>
				<path fill="#151819" d="M1064.578,97.819c5.041-2.91,8.381-20.104,8.381-26.291V30.46l-16.066,13.279l-0.057,1.543v31.465
					c0,3.766-1.915,4.732-6.818,6.818l-79.277,30.674l-86.063-30.674c-4.602-1.798-6.816-3.053-6.816-6.818V50.585l-0.295-10.771
					l-14.98-12.383v44.098c0,6.188,3.341,23.381,8.382,26.291l88.425,51.053c5.169,2.984,11.594,2.984,16.764,0L1064.578,97.819z"/>
				<path d="M1007.852,94.724c6.693-1.217,11.32-15.514,12.886-21.1l-12.534,10.36c0.146,0.38,0.229,0.79,0.229,1.222
					c0,1.883-1.523,3.408-3.408,3.408c-0.66,0-1.274-0.189-1.799-0.516l-6.46,5.339C999.707,95.078,1004.729,95.29,1007.852,94.724z
					"/>
				<path fill="#FFFFFF" d="M1012.59,128.491l3.63-2.096l48.645-28.084c5.302-3.061,8.665-20.318,8.665-26.783V29.99l25.051-20.705
					l-0.345-0.452l-24.706,17.362v-56.772c0-6.172-3.321-11.922-8.665-15.008l-39.591-22.856l-0.531,0.349l39.838,23
					c5.17,2.984,8.381,8.547,8.381,14.516v57.172l-15.847,11.135l0.292-7.979c0-4.073-3.313-7.387-7.389-7.387h-0.104L970.73,52.513
					l-85.864-30.117l-0.093-0.032h-0.098c-4.072,0-7.387,3.313-7.387,7.402l0.133,4.86l-14.84-10.43v-54.773
					c0-5.969,3.212-11.531,8.382-14.516l88.425-51.053l-0.143-0.245l-0.145-0.247L870.68-45.586
					c-5.345,3.086-8.665,8.836-8.665,15.008v54.375L842.41,10.021l-0.344,0.451l19.948,16.49v44.566
					c0,6.465,3.362,23.723,8.665,26.783l54.991,31.75l33.435,19.303c2.674,1.542,5.67,2.313,8.663,2.313
					c2.997,0,5.993-0.771,8.666-2.313l34.471-19.9 M959.391,148.872l-88.425-51.053c-5.041-2.91-8.382-20.104-8.382-26.291V27.431
					l14.981,12.383l0.294,10.771v26.162c0,3.766,2.217,5.021,6.816,6.818l86.063,30.674l79.277-30.674
					c4.903-2.086,6.818-3.053,6.818-6.818V45.282l0.057-1.543l16.066-13.279v41.068c0,6.188-3.34,23.381-8.381,26.291
					l-88.426,51.053C970.982,151.856,964.56,151.856,959.391,148.872z M930.459,83.532c-0.279,0.494-0.441,1.064-0.441,1.674
					c0,1.883,1.525,3.408,3.409,3.408c0.841,0,1.609-0.305,2.203-0.809l6.493,5.367c-2.858,1.882-8.242,2.148-11.527,1.551
					c-7.044-1.281-11.804-17.063-13.104-21.911L930.459,83.532z M959.326,92.875l-4.324,10.205L848.028,14.663L959.326,92.875z
					 M966.464,100.165l0.555-0.991c1.157-2.06,2.445-3.067,3.905-3.003c2.218,0.104,3.474,2.793,3.607,3.099l0.461,1.038
					l-2.079,0.922l-0.46-1.039c-0.322-0.717-1.072-1.725-1.639-1.75c-0.165,0-0.834,0.1-1.813,1.846l-0.556,0.99L966.464,100.165z
					 M982.611,90.778l110.004-77.303l-106.975,88.416l-1.923-4.537c-2.938-5.078-4.482-7.957-4.584-8.553
					c-0.276-1.664,4.376-9.727,6.339-12.656l1.89,1.264c-2.896,4.324-5.644,9.833-5.95,11.07
					C981.57,88.851,982.007,89.679,982.611,90.778z M1003.224,88.099c0.522,0.326,1.139,0.516,1.798,0.516
					c1.886,0,3.409-1.525,3.409-3.408c0-0.432-0.084-0.842-0.229-1.222l12.534-10.36c-1.563,5.586-6.19,19.883-12.886,21.1
					c-3.123,0.566-8.145,0.354-11.088-1.286L1003.224,88.099z M878.428,29.75c0-3.415,2.752-6.198,6.154-6.249l85.721,30.065
					l0.107,0.284l79.71-30.35c3.399,0.054,6.146,2.837,6.146,6.229L1056,37.04c-1.158-2.113-3.402-3.549-5.983-3.549l-79.277,30.188
					l-86.063-30.188c-2.133,0-4.037,0.982-5.287,2.516l-0.808-0.567L878.428,29.75z"/>
				<path d="M930.596,94.724c3.285,0.598,8.669,0.331,11.527-1.551l-6.493-5.367c-0.594,0.504-1.362,0.809-2.203,0.809
					c-1.884,0-3.409-1.525-3.409-3.408c0-0.609,0.162-1.18,0.441-1.674l-12.969-10.72C918.792,77.661,923.552,93.442,930.596,94.724
					z"/>
				<polygon points="848.028,14.663 955.002,103.08 959.326,92.875 				"/>
				<path d="M970.814,98.44c0.564,0.025,1.314,1.033,1.639,1.75l0.46,1.039l2.079-0.922l-0.461-1.038
					c-0.138-0.306-1.392-2.995-3.607-3.099c-1.46-0.064-2.748,0.943-3.905,3.003l-0.555,0.991l1.981,1.111l0.556-0.99
					C969.98,98.54,970.649,98.44,970.814,98.44z"/>
				<path d="M985.475,76.146c-1.963,2.93-6.615,10.992-6.339,12.656c0.102,0.596,1.646,3.475,4.584,8.553l1.923,4.537
					l106.975-88.416L982.611,90.778c-0.604-1.1-1.041-1.928-1.199-2.299c0.309-1.237,3.054-6.746,5.95-11.07L985.475,76.146z"/>
			</g>
		</g>
	</g>
	<g id="sharp_ninja_body" display="none">
		<path display="inline" fill="#151819" stroke="#FFFFFF" stroke-miterlimit="10" d="M874.62,393.266
			c0,0-38.455-44.043-51.455-43.093s-47.619,44.834-90.136,54.56c-42.519,9.724-78.43-16.015-87.375-23.709
			c-13.334-11.469-30.545-28.709-30.545-28.709l3.19,35.012c0,0,3.883,9.588,39.11,25.072c34.75,15.273,58.753,36.26,106.753,2.991
			c48-33.267,52.526-47.821,65.264-35.044s53.151,34.144,53.151,34.144L874.62,393.266z"/>
		<path display="inline" fill="#151819" stroke="#FFFFFF" stroke-miterlimit="10" d="M858.992,379.061
			c0,0-33.51-18.422-57.547-3.951c-24.038,14.472-51.025,68.835-68.705,75.956c-17.683,7.118-52.711,22.557-69.008,10.525
			c-10.191-7.521-5.622,10.934-1.369,14.475c4.252,3.541,61.238,2.711,85.885-12.286c24.645-14.996,40.747-40.539,52.782-58.993
			c12.034-18.455,33.024-23.738,42.895-17.976c9.869,5.766,15.934-4.988,15.934-4.988"/>
		<path display="inline" fill="#151819" d="M1007.539,497.355c-24.326-20.003-71.648-9.542-71.648-9.542l-3.078-2.841l22.533-17.514
			l34.271-54.94l0.368-31.393L862.824,368.91c0,0-18.098,46.313-20.407,60.55c-2.983,18.375,5.673,52.701,12.16,74.656
			l-11.673,31.324l-7.285,40.04l-24.254-24.087l-15.2,10.65l-14.685,40.422l42.672,0.622l-5.663-9.514l28.582,15.804h10.939
			l24.599-39.001l21.07-29.507c31.498-13.314,66.981-15.919,66.981-15.919l-19.374,13.507l5.688,6.057l-5.563,4.841l-8.063,42.241
			h57.067l-20-15.139l-1.423-8.999l24.003-11.841l5.748-35.387C1008.744,520.234,1012.08,501.09,1007.539,497.355z"/>
		<polyline display="inline" fill="#151819" stroke="#FFFFFF" stroke-miterlimit="10" points="878.486,443.212 892.053,493.097 
			911.333,539.398 943.134,619.141 931.136,606.82 848.561,462.516 		"/>
		<polygon display="inline" fill="#151819" points="939.278,633.242 909.645,624.226 917.579,581.729 926.658,579.707 
			946.268,608.204 963.749,627.893 		"/>
		<g display="inline">
			<polygon fill="#FFFFFF" points="1107.874,216.083 1107.67,216.437 1109.917,217.263 			"/>
			<g>
				<path fill="#151819" d="M867.427,265.58c-5.17,2.984-8.382,8.547-8.382,14.516v54.773l14.84,10.429l-0.133-4.86
					c0-4.088,3.314-7.4,7.387-7.4h0.098l0.093,0.031l85.864,30.117l79.183-30.148h0.104c4.071,0,7.387,3.313,7.387,7.387
					l-0.292,7.979l15.847-11.135v-57.17c0-5.97-3.211-11.531-8.381-14.517l-39.838-23l0.531-0.349l9.813-6.428l-57.629-21.181
					l-7.146-2.627l-11.063,2.284L867.427,265.58z"/>
				<path d="M881.139,344.165l86.063,30.187l79.277-30.187c2.582,0,4.825,1.435,5.983,3.548l0.27-7.311
					c-0.002-3.391-2.75-6.174-6.148-6.229l-79.71,30.351l-0.107-0.283l-85.721-30.066c-3.401,0.053-6.154,2.835-6.154,6.25
					l0.155,5.688l0.81,0.568C877.102,345.146,879.006,344.165,881.139,344.165z"/>
				<path fill="#151819" d="M1061.039,408.493c5.041-2.911,8.381-20.104,8.381-26.292v-41.068l-16.066,13.279l-0.057,1.543v31.464
					c0,3.767-1.915,4.733-6.818,6.819L967.2,424.911l-86.063-30.673c-4.602-1.799-6.816-3.053-6.816-6.819v-26.162l-0.294-10.771
					l-14.981-12.383v44.098c0,6.188,3.341,23.381,8.382,26.292l88.425,51.052c5.169,2.984,11.594,2.984,16.764,0L1061.039,408.493z"
					/>
				<path d="M1004.313,405.396c6.693-1.219,11.32-15.516,12.886-21.101l-12.534,10.36c0.146,0.379,0.229,0.789,0.229,1.221
					c0,1.883-1.523,3.409-3.407,3.409c-0.661,0-1.275-0.19-1.8-0.517l-6.46,5.34C996.168,405.751,1001.189,405.963,1004.313,405.396
					z"/>
				<path fill="#FFFFFF" d="M1009.051,439.164l3.63-2.096l48.645-28.083c5.302-3.063,8.665-20.318,8.665-26.784v-41.538
					l25.051-20.705l-0.345-0.452l-24.706,17.362v-56.772c0-6.172-3.321-11.923-8.665-15.008l-39.591-22.857l-0.531,0.351l39.838,23
					c5.17,2.983,8.381,8.547,8.381,14.517v57.172l-15.847,11.135l0.292-7.98c0-4.072-3.313-7.387-7.389-7.387h-0.104l-79.184,30.15
					l-85.863-30.119l-0.094-0.031h-0.097c-4.071,0-7.387,3.314-7.387,7.402l0.133,4.858l-14.84-10.429v-54.773
					c0-5.969,3.212-11.529,8.382-14.516l88.425-51.052l-0.143-0.246l-0.144-0.247l-88.425,51.053
					c-5.345,3.085-8.665,8.836-8.665,15.008v54.375l-19.604-13.777l-0.345,0.453l19.949,16.488V382.2
					c0,6.466,3.362,23.723,8.665,26.784l54.991,31.75l33.434,19.303c2.675,1.542,5.67,2.313,8.664,2.313
					c2.997,0,5.993-0.771,8.666-2.313l34.471-19.9 M955.852,459.545l-88.425-51.052c-5.041-2.911-8.382-20.104-8.382-26.292v-44.098
					l14.981,12.383l0.294,10.771v26.162c0,3.767,2.217,5.021,6.816,6.819l86.063,30.673l79.279-30.673
					c4.901-2.086,6.816-3.053,6.816-6.819v-31.464l0.059-1.543l16.064-13.279v41.068c0,6.188-3.34,23.381-8.381,26.292
					l-88.426,51.052C967.443,462.529,961.021,462.529,955.852,459.545z M926.92,394.205c-0.279,0.495-0.441,1.064-0.441,1.674
					c0,1.883,1.525,3.409,3.409,3.409c0.841,0,1.609-0.306,2.203-0.812l6.493,5.368c-2.858,1.882-8.242,2.148-11.527,1.553
					c-7.044-1.282-11.804-17.063-13.104-21.911L926.92,394.205z M955.787,403.548l-4.324,10.205l-106.974-88.417L955.787,403.548z
					 M962.925,410.837l0.557-0.991c1.155-2.06,2.443-3.066,3.903-3.003c2.219,0.104,3.474,2.793,3.607,3.101l0.461,1.039
					l-2.079,0.921l-0.46-1.039c-0.322-0.716-1.072-1.727-1.639-1.75c-0.165,0-0.834,0.099-1.813,1.845l-0.556,0.991L962.925,410.837
					z M979.072,401.451l110.004-77.303l-106.973,88.417l-1.925-4.537c-2.938-5.079-4.482-7.957-4.584-8.555
					c-0.276-1.664,4.376-9.727,6.341-12.655l1.888,1.265c-2.896,4.323-5.644,9.833-5.95,11.069
					C978.031,399.523,978.468,400.352,979.072,401.451z M999.685,398.771c0.522,0.324,1.139,0.516,1.8,0.516
					c1.884,0,3.407-1.526,3.407-3.409c0-0.431-0.084-0.842-0.229-1.221l12.534-10.36c-1.563,5.585-6.19,19.882-12.885,21.101
					c-3.122,0.565-8.146,0.354-11.089-1.286L999.685,398.771z M874.889,340.423c0-3.415,2.752-6.198,6.154-6.25l85.721,30.066
					l0.107,0.284l79.71-30.352c3.399,0.055,6.146,2.837,6.146,6.229l-0.268,7.312c-1.158-2.112-3.402-3.548-5.983-3.548
					l-79.277,30.188l-86.063-30.188c-2.133,0-4.037,0.98-5.287,2.516l-0.808-0.566L874.889,340.423z"/>
				<path d="M927.057,405.396c3.285,0.597,8.669,0.329,11.527-1.553l-6.493-5.368c-0.594,0.506-1.362,0.812-2.203,0.812
					c-1.884,0-3.409-1.526-3.409-3.409c0-0.608,0.162-1.179,0.441-1.674l-12.969-10.72
					C915.253,388.334,920.013,404.115,927.057,405.396z"/>
				<polygon points="844.489,325.336 951.463,413.753 955.787,403.548 				"/>
				<path d="M967.275,409.114c0.564,0.022,1.314,1.033,1.639,1.75l0.46,1.039l2.079-0.921l-0.461-1.039
					c-0.136-0.308-1.392-2.995-3.607-3.101c-1.46-0.063-2.748,0.943-3.903,3.003l-0.557,0.991l1.981,1.112l0.556-0.991
					C966.441,409.212,967.11,409.114,967.275,409.114z"/>
				<path d="M981.936,386.818c-1.963,2.93-6.615,10.991-6.339,12.655c0.102,0.598,1.646,3.477,4.584,8.555l1.923,4.537
					l106.975-88.417l-110.004,77.303c-0.604-1.101-1.041-1.928-1.199-2.299c0.309-1.237,3.054-6.746,5.95-11.069L981.936,386.818z"
					/>
			</g>
		</g>
		<path display="inline" fill="#151819" stroke="#FFFFFF" stroke-miterlimit="10" d="M938.584,450.231c0,0-3.316,4.021-9.316,6.466
			c-6,2.441-42.512,16.923-42.512,16.923"/>
		<g display="inline">
			<polygon fill="#151819" points="1094.716,379.427 1084.969,373.766 1047.346,395.82 1050.013,372.584 1072.675,355.141 
				1103.903,338.049 1111.012,353.945 1113.748,368.768 			"/>
			<rect x="1111.012" y="323.174" fill="#151819" width="12.667" height="76.667"/>
			<polygon fill="#151819" points="1395.607,358.75 1376.607,371.992 1123.678,371.992 1123.678,345.507 1417.607,345.507 			"/>
		</g>
	</g>
	<g id="Layer_5" display="none">
		<g display="inline">
			<g>
				
					<rect x="-1200.598" y="78.601" fill="none" stroke="#727272" stroke-width="2" stroke-miterlimit="10" width="184.718" height="184.719"/>
				
					<rect x="-1200.598" y="293.318" fill="none" stroke="#727272" stroke-width="2" stroke-miterlimit="10" width="184.718" height="184.72"/>
				
					<rect x="-1200.598" y="508.038" fill="none" stroke="#727272" stroke-width="2" stroke-miterlimit="10" width="184.718" height="184.717"/>
				
					<rect x="-1200.598" y="722.755" fill="none" stroke="#727272" stroke-width="2" stroke-miterlimit="10" width="184.718" height="184.719"/>
				
					<rect x="-1200.598" y="937.474" fill="none" stroke="#727272" stroke-width="2" stroke-miterlimit="10" width="184.718" height="184.721"/>
			</g>
			<g>
				
					<rect x="-556.444" y="78.601" fill="none" stroke="#727272" stroke-width="2" stroke-miterlimit="10" width="184.719" height="184.719"/>
				
					<rect x="-556.444" y="293.318" fill="none" stroke="#727272" stroke-width="2" stroke-miterlimit="10" width="184.719" height="184.72"/>
				
					<rect x="-556.444" y="508.038" fill="none" stroke="#727272" stroke-width="2" stroke-miterlimit="10" width="184.719" height="184.717"/>
				
					<rect x="-556.444" y="722.755" fill="none" stroke="#727272" stroke-width="2" stroke-miterlimit="10" width="184.719" height="184.719"/>
				
					<rect x="-556.444" y="937.474" fill="none" stroke="#727272" stroke-width="2" stroke-miterlimit="10" width="184.719" height="184.721"/>
			</g>
			<g>
				
					<rect x="-341.726" y="78.601" fill="none" stroke="#727272" stroke-width="2" stroke-miterlimit="10" width="184.717" height="184.719"/>
				
					<rect x="-341.726" y="293.318" fill="none" stroke="#727272" stroke-width="2" stroke-miterlimit="10" width="184.717" height="184.72"/>
				
					<rect x="-341.726" y="508.038" fill="none" stroke="#727272" stroke-width="2" stroke-miterlimit="10" width="184.717" height="184.717"/>
				
					<rect x="-341.726" y="722.755" fill="none" stroke="#727272" stroke-width="2" stroke-miterlimit="10" width="184.717" height="184.719"/>
				
					<rect x="-341.726" y="937.474" fill="none" stroke="#727272" stroke-width="2" stroke-miterlimit="10" width="184.717" height="184.721"/>
			</g>
			<g>
				
					<rect x="-771.161" y="75.601" fill="none" stroke="#727272" stroke-width="2" stroke-miterlimit="10" width="184.717" height="184.719"/>
				
					<rect x="-771.161" y="290.318" fill="none" stroke="#727272" stroke-width="2" stroke-miterlimit="10" width="184.717" height="184.72"/>
				
					<rect x="-771.161" y="505.038" fill="none" stroke="#727272" stroke-width="2" stroke-miterlimit="10" width="184.717" height="184.717"/>
				
					<rect x="-771.161" y="719.755" fill="none" stroke="#727272" stroke-width="2" stroke-miterlimit="10" width="184.717" height="184.719"/>
				
					<rect x="-771.161" y="934.474" fill="none" stroke="#727272" stroke-width="2" stroke-miterlimit="10" width="184.717" height="184.721"/>
			</g>
			<g>
				
					<rect x="-985.88" y="75.601" fill="none" stroke="#727272" stroke-width="2" stroke-miterlimit="10" width="184.719" height="184.719"/>
				
					<rect x="-985.88" y="290.318" fill="none" stroke="#727272" stroke-width="2" stroke-miterlimit="10" width="184.719" height="184.72"/>
				
					<rect x="-985.88" y="505.038" fill="none" stroke="#727272" stroke-width="2" stroke-miterlimit="10" width="184.719" height="184.717"/>
				
					<rect x="-985.88" y="719.755" fill="none" stroke="#727272" stroke-width="2" stroke-miterlimit="10" width="184.719" height="184.719"/>
				
					<rect x="-985.88" y="934.474" fill="none" stroke="#727272" stroke-width="2" stroke-miterlimit="10" width="184.719" height="184.721"/>
			</g>
		</g>
	</g>
	<g id="Layer_6" display="none">
		<path display="inline" fill="#BFC4BE" d="M-462.893,820.32c0,5.083-4.122,9.205-9.206,9.205l0,0c-5.083,0-9.205-4.122-9.205-9.205
			l0,0c0-5.084,4.122-9.206,9.205-9.206l0,0C-467.015,811.114-462.893,815.236-462.893,820.32L-462.893,820.32z"/>
		<polygon display="inline" fill="#BFC4BE" points="-820.582,897.396 -847.138,897.396 -828.571,845.365 -812.799,875.558 		"/>
		<path display="inline" fill="#7B8E95" d="M-1053.357,100.94h-16.992l-105.264,140.039h18.262l13.297-18.37l15.119-20.888h0.154
			l10.789-14.746h-0.045l43.742-59.668c1.204-1.629,2.521-3.699,3.945-6.193v119.864h1.182h18.164V100.94H-1053.357z"/>
		<circle display="inline" fill="#BFC4BE" cx="-1091.973" cy="189.835" r="9.875"/>
		<polygon display="inline" fill="#BFC4BE" points="-1052.848,160.146 -1046.848,168.146 -1046.848,240.979 -1054.348,240.979 		"/>
		<polygon display="inline" fill="#BFC4BE" points="-1083.611,122.573 -1094.348,122.573 -1186.598,240.979 -1172.613,240.979 		"/>
		<g display="inline">
			<g>
				<circle fill="#BFC4BE" cx="-880.473" cy="194.835" r="9.875"/>
				<path fill="#BFC4BE" d="M-839.504,167.605V105.94h-2.354h-16.992l-16.261,21.632h-7.737l-92.25,118.406h10.984h3h15.262
					l13.297-18.371l15.119-20.888h0.154l10.789-14.746h-0.045l43.742-59.668c1.204-1.629,2.521-3.699,3.945-6.193v119.864h1.182
					h14.82h3.344h4.156v-72.833L-839.504,167.605z"/>
			</g>
		</g>
		<polyline display="inline" fill="none" stroke="#B6C8CE" stroke-miterlimit="10" points="-841.304,245.979 -841.304,173.146 
			-845.46,167.605 -845.46,105.94 		"/>
		<g display="inline">
			<path fill="#B6C8CE" d="M-878.788,195.538c0,0.476-0.386,0.861-0.861,0.861l0,0c-0.476,0-0.861-0.385-0.861-0.861v-5.646
				c0-0.476,0.386-0.861,0.861-0.861l0,0c0.476,0,0.861,0.386,0.861,0.861V195.538z"/>
			<path fill="#B6C8CE" d="M-885.296,196.639c-0.476,0-0.861-0.386-0.861-0.861l0,0c0-0.476,0.386-0.861,0.861-0.861h5.646
				c0.476,0,0.861,0.386,0.861,0.861l0,0c0,0.476-0.386,0.861-0.861,0.861H-885.296z"/>
		</g>
		<polygon display="inline" fill="#B6C8CE" points="-966.129,245.979 -967.396,245.979 -878.652,132.073 -870.921,132.073 
			-854.66,110.44 -839.504,110.44 -839.504,111.44 -854.16,111.44 -870.421,133.073 -878.164,133.073 		"/>
		<g display="inline">
			<g>
				<circle fill="#BFC4BE" cx="-672.787" cy="191.249" r="14.375"/>
				<path fill="#BFC4BE" d="M-630.568,162.605V100.94h-2.354h-16.992l-16.261,21.632h-7.737l-92.25,118.406h10.984h3h15.262
					l13.297-18.371l15.119-20.888h0.154l10.789-14.746h-0.045l43.742-59.668c1.204-1.629,2.521-3.699,3.945-6.193v119.864h1.182
					h14.82h3.344h4.156v-72.833L-630.568,162.605z"/>
			</g>
		</g>
		<polyline display="inline" fill="none" stroke="#B6C8CE" stroke-miterlimit="10" points="-632.368,240.979 -632.368,168.146 
			-636.524,162.605 -636.524,100.94 		"/>
		<g display="inline">
			<path fill="#FFFFFF" d="M-670.335,193.272c0,0.693-0.562,1.254-1.254,1.254l0,0c-0.692,0-1.254-0.561-1.254-1.254v-8.219
				c0-0.692,0.562-1.254,1.254-1.254l0,0c0.692,0,1.254,0.562,1.254,1.254V193.272z"/>
			<path fill="#FFFFFF" d="M-679.809,194.875c-0.692,0-1.254-0.562-1.254-1.254l0,0c0-0.692,0.562-1.254,1.254-1.254h8.22
				c0.692,0,1.254,0.562,1.254,1.254l0,0c0,0.692-0.562,1.254-1.254,1.254H-679.809z"/>
		</g>
		<polygon display="inline" fill="#B6C8CE" points="-757.193,240.979 -758.461,240.979 -669.717,127.073 -661.985,127.073 
			-645.725,105.44 -630.568,105.44 -630.568,106.44 -645.225,106.44 -661.485,128.073 -669.229,128.073 		"/>
		<g display="inline">
			<g>
				<path fill="#BFC4BE" d="M-437.612,196.458c0-2.876-2.333-5.208-5.208-5.208c-2.877,0-5.209,2.332-5.209,5.208"/>
				<path fill="#BFC4BE" d="M-448.029,196.458c0,2.876,2.332,5.208,5.209,5.208c2.875,0,5.208-2.332,5.208-5.208"/>
			</g>
		</g>
		<g display="inline">
			<path fill="#BFC4BE" d="M-414.771,106.965v20.09l21.448,24.466v-66.92h-2.609h-18.839l-18.025,23.982h-8.579l-102.054,131.188
				l10.253,0.136l5.038-0.06h16.918l14.74-20.367l16.763-23.156h0.171l11.96-16.347h-0.049l48.493-66.148
				C-417.809,112.025-416.349,109.731-414.771,106.965z"/>
			<polygon fill="#BFC4BE" points="-388.715,162.134 -414.771,132.626 -414.771,140.068 -390.822,167.19 -390.822,241.084 
				-388.715,237.459 			"/>
			<polygon fill="#BFC4BE" points="-391.822,245.486 -391.822,167.568 -414.771,141.58 -414.771,241.848 -401.306,256.59 			"/>
			<path fill="#B6CCD3" d="M-402.238,127.074l-2.232-2.528l-0.75,0.662l-0.135,109.028l13.658,14.205l-0.063,0.076l0.76,0.647
				l12.711-14.883v-2.962v-77.125L-402.238,127.074z M-402.238,128.585l22.948,25.989v77.918l-9.483,11.104l-13.465-14.743V128.585z
				"/>
		</g>
		<g display="inline">
			<g>
				<path fill="#BFC4BE" d="M-226.279,199.791c0-2.876-2.333-5.208-5.208-5.208c-2.877,0-5.209,2.332-5.209,5.208"/>
				<path fill="#BFC4BE" d="M-236.696,199.791c0,2.876,2.332,5.208,5.209,5.208c2.875,0,5.208-2.332,5.208-5.208"/>
			</g>
		</g>
		<polygon display="inline" fill="#B6C8CE" points="-533.238,240.415 -534.637,240.415 -436.764,114.791 -428.236,114.791 
			-410.303,90.934 -393.588,90.934 -393.588,92.037 -409.752,92.037 -427.686,115.894 -436.225,115.894 		"/>
		<g display="inline">
			<g>
				<polygon fill="#BFC4BE" points="-216.984,118.125 -198.772,93.896 -181.989,93.896 -181.989,89.934 -184.599,89.934 
					-203.438,89.934 -221.463,113.916 -230.042,113.916 -332.096,245.104 -324.649,245.202 -225.645,118.125 				"/>
				<path fill="#BFC4BE" d="M-203.438,112.298v20.09l21.448,24.466V95.017h-16.224l-18.212,24.228h-8.672l-98.147,125.976
					l1.401,0.021l5.038-0.06h16.918l14.74-20.367l16.763-23.156h0.171l11.96-16.347h-0.049l48.493-66.148
					C-206.476,117.358-205.016,115.064-203.438,112.298z"/>
				<polygon fill="#BFC4BE" points="-203.438,135.959 -203.438,143.401 -179.489,170.523 -179.489,247.648 -177.382,245.182 
					-177.382,165.467 				"/>
				<polygon fill="#BFC4BE" points="-203.438,245.182 -189.973,259.923 -180.489,248.818 -180.489,170.901 -203.438,144.913 				"/>
			</g>
		</g>
		<g display="inline">
			<g>
				<path fill="#BFC4BE" d="M-1093.34,413.541c0-2.876-2.333-5.208-5.208-5.208c-2.877,0-5.209,2.332-5.209,5.208"/>
				<path fill="#BFC4BE" d="M-1103.757,413.541c0,2.876,2.332,5.208,5.209,5.208c2.875,0,5.208-2.332,5.208-5.208"/>
			</g>
		</g>
		<g display="inline">
			<g>
				<polygon fill="#BFC4BE" points="-1085.045,330.875 -1066.833,306.646 -1049.05,306.646 -1049.05,302.684 -1052.66,302.684 
					-1071.499,302.684 -1089.524,326.666 -1098.103,326.666 -1200.97,458.989 -1193.637,458.989 -1093.706,330.875 				"/>
				<polygon fill="#BFC4BE" points="-1070.499,349.709 -1070.499,357.15 -1046.55,384.273 -1046.55,461.398 -1044.443,458.931 
					-1044.443,379.217 				"/>
				<polygon fill="#BFC4BE" points="-1071.499,459.931 -1058.034,474.674 -1048.55,463.569 -1048.55,385.65 -1071.499,359.663 				
					"/>
			</g>
		</g>
		<g display="inline">
			<g>
				<path fill="#BFC4BE" d="M-1065.274,308.768l-18.212,24.229h-8.672l-98.147,125.976l1.401,0.021l5.038-0.061h16.918l14.74-20.364
					l16.763-23.155h0.171l11.96-16.347h-0.049l48.493-66.148c1.333-1.806,2.793-4.099,4.371-6.865v20.091l14.028,16.002V308.77
					h-8.803V308.768z"/>
				<polygon fill="#BFC4BE" points="-1049.05,308.768 -1054.47,308.768 -1054.47,364.422 -1049.05,370.604 				"/>
			</g>
		</g>
		<g display="inline">
			<g>
				<polygon fill="#BFC4BE" points="-863.971,327.875 -845.758,303.646 -827.975,303.646 -827.975,299.684 -831.584,299.684 
					-850.424,299.684 -868.449,323.666 -877.027,323.666 -979.895,455.989 -972.563,455.989 -872.631,327.875 				"/>
				<polygon fill="#BFC4BE" points="-849.424,346.709 -849.424,354.15 -825.475,381.273 -825.475,458.398 -823.367,455.931 
					-823.367,376.217 				"/>
				<polygon fill="#BFC4BE" points="-850.424,456.931 -836.959,471.674 -827.475,460.569 -827.475,382.65 -850.424,356.663 				"/>
			</g>
		</g>
		<g display="inline">
			<g>
				<path fill="#BFC4BE" d="M-844.199,305.768l-18.211,24.229h-8.672l-98.148,125.976l1.402,0.021l5.037-0.061h16.918l14.74-20.364
					l16.764-23.155h0.17l11.961-16.347h-0.049l48.492-66.148c1.334-1.806,2.793-4.099,4.371-6.865v20.091l14.029,16.002V305.77
					h-8.804V305.768z"/>
				<polygon fill="#BFC4BE" points="-827.975,305.768 -833.395,305.768 -833.395,361.422 -827.975,367.604 				"/>
			</g>
		</g>
		<rect x="-887.579" y="398.878" display="inline" fill="#BFC4BE" width="43.256" height="3.521"/>
		<rect x="-887.579" y="408.802" display="inline" fill="#BFC4BE" width="43.256" height="3.521"/>
		<rect x="-887.579" y="418.726" display="inline" fill="#BFC4BE" width="43.256" height="3.521"/>
		<g display="inline">
			<g>
				<polygon fill="#BFC4BE" points="-649.502,332.875 -631.289,308.646 -613.506,308.646 -613.506,304.684 -617.115,304.684 
					-635.955,304.684 -653.98,328.666 -662.559,328.666 -765.426,460.989 -758.094,460.989 -658.162,332.875 				"/>
				<polygon fill="#BFC4BE" points="-634.955,351.709 -634.955,359.15 -611.006,386.273 -611.006,463.398 -608.898,460.931 
					-608.898,381.217 				"/>
				<polygon fill="#BFC4BE" points="-635.955,461.931 -622.49,476.674 -613.006,465.569 -613.006,387.65 -635.955,361.663 				"/>
			</g>
		</g>
		<g display="inline">
			<g>
				<path fill="#BFC4BE" d="M-629.73,310.768l-18.211,24.229h-8.672l-98.148,125.976l1.402,0.021l5.037-0.061h16.918l14.74-20.364
					l16.764-23.155h0.17l11.961-16.347h-0.049l48.492-66.149c1.334-1.807,2.793-4.1,4.371-6.865v20.09l14.029,16.002V310.77h-8.804
					V310.768z"/>
				<polygon fill="#BFC4BE" points="-613.506,310.768 -618.926,310.768 -618.926,366.422 -613.506,372.604 				"/>
			</g>
		</g>
		<rect x="-673.11" y="409.345" display="inline" fill="#BFC4BE" width="43.256" height="7.917"/>
		<circle display="inline" fill="#BFC4BE" cx="-1099.596" cy="630.801" r="4.772"/>
		<polyline display="inline" fill="#BFC4BE" points="-1194.285,680.266 -1180.3,680.266 -1076.074,540.116 -1087.949,544.183 
			-1189.285,680.266 		"/>
		<g display="inline">
			<polygon fill="#7B8E95" points="-1056.691,669.886 -1056.691,636.899 -1056.691,610.115 -1062.074,604.301 -1062.066,604.294 
				-1076.037,589.203 -1076.037,675.783 			"/>
			<path fill="#7B8E95" d="M-1079.982,566.533c1.204-1.629,2.521-3.698,3.945-6.193v20.503l18.292,19.759l-0.008,0.009l1.062,1.146
				v-61.589v-25.638L-1181.3,680.205h18.262l13.297-18.37l15.119-20.888h0.154l10.789-14.746h-0.045L-1079.982,566.533z"/>
			<polygon fill="#BFC4BE" points="-1052.491,680.537 -1052.491,641.073 -1056.691,636.899 -1056.691,669.886 -1076.037,675.783 
				-1093.824,681.205 -1076.037,681.205 -1058.035,681.205 -1056.691,681.205 -1052.491,681.205 -1052.324,681.205 			"/>
		</g>
		<polygon display="inline" fill="#BFC4BE" points="-1111.678,617.528 -1138.179,617.528 -1134.429,612.528 -1112.991,612.528 		"/>
		<polygon display="inline" fill="#BFC4BE" points="-1111.678,617.528 -1115.015,613.563 -1071.574,553.685 -1071.574,561.528 		"/>
		<rect x="-1076.574" y="561.528" display="inline" fill="#BFC4BE" width="5" height="19"/>
		<polygon display="inline" fill="#BFC4BE" points="-1054.209,604.591 -1076.574,580.528 -1072.904,577.132 -1056.691,594.646 		"/>
		<g display="inline">
			<g>
				<polygon fill="#7B8E95" points="-844.424,595.646 -844.424,680.705 -843.618,680.705 -831.237,680.705 -831.237,609.615 				"/>
				<path fill="#7B8E95" d="M-832.3,600.108l1.063,1.146v-61.589v-25.638l-124.61,165.677h18.262l13.297-18.37l15.119-20.888h0.154
					l10.789-14.746h-0.045l43.743-59.668c1.203-1.629,2.521-3.698,3.945-6.193v20.503l18.291,19.759L-832.3,600.108z"/>
			</g>
		</g>
		<circle display="inline" fill="#7B8E95" cx="-869.371" cy="630.301" r="4.772"/>
		<polyline display="inline" fill="#BFC4BE" points="-954.848,679.766 -850.62,539.616 -880.304,546.486 -979.88,679.705 		"/>
		<g display="inline">
			<g>
				<polygon fill="#BFC4BE" points="-831.474,636.166 -827.038,640.573 -827.038,680.705 -832.581,680.705 				"/>
				<polygon fill="#BFC4BE" points="-827.87,680.705 -869.37,680.705 -831.704,657.195 				"/>
			</g>
		</g>
		<polygon display="inline" fill="#BFC4BE" points="-886.166,616.967 -921.263,630.979 -911.614,621.633 -889.231,612.804 		"/>
		<polygon display="inline" fill="#BFC4BE" points="-886.166,616.967 -889.231,612.804 -846.12,553.185 -846.12,561.028 		"/>
		<rect x="-851.12" y="561.028" display="inline" fill="#BFC4BE" width="5" height="19"/>
		<polygon display="inline" fill="#BFC4BE" points="-828.757,604.091 -851.12,580.028 -847.45,576.632 -831.237,594.146 		"/>
		
			<line display="inline" fill="none" stroke="#A6B6BC" stroke-miterlimit="10" x1="-965.848" y1="679.766" x2="-864.106" y2="542.96"/>
		
			<line display="inline" fill="none" stroke="#A6B6BC" stroke-miterlimit="10" x1="-860.37" y1="680.705" x2="-827.033" y2="659.896"/>
		
			<line display="inline" fill="none" stroke="#A6B6BC" stroke-miterlimit="10" x1="-850.62" y1="680.591" x2="-827.078" y2="665.896"/>
		<g display="inline">
			<g>
				<polygon fill="#7B8E95" points="-630.434,588.642 -630.434,673.699 -629.628,673.699 -617.247,673.699 -617.247,602.609 				"/>
				<path fill="#7B8E95" d="M-618.31,593.104l1.063,1.146v-61.59v-25.64l-124.61,165.679h18.262l13.297-18.37l15.119-20.888h0.154
					l10.789-14.746h-0.045l43.743-59.668c1.203-1.629,2.521-3.698,3.945-6.193v20.503l18.291,19.759L-618.31,593.104z"/>
			</g>
		</g>
		<polyline display="inline" fill="#BFC4BE" points="-740.857,672.76 -636.63,532.61 -666.313,539.48 -765.89,672.699 		"/>
		<g display="inline">
			<g>
				<polygon fill="#BFC4BE" points="-617.483,629.16 -613.048,633.567 -613.048,673.699 -618.591,673.699 				"/>
				<polygon fill="#BFC4BE" points="-613.88,673.699 -655.38,673.699 -617.714,650.189 				"/>
			</g>
		</g>
		<polygon display="inline" fill="#BFC4BE" points="-672.176,609.961 -707.272,623.974 -697.624,614.627 -675.241,605.798 		"/>
		<polygon display="inline" fill="#BFC4BE" points="-672.176,609.961 -675.241,605.798 -632.13,546.179 -632.13,554.021 		"/>
		<rect x="-637.13" y="554.021" display="inline" fill="#BFC4BE" width="5" height="19"/>
		<polygon display="inline" fill="#BFC4BE" points="-614.767,597.085 -637.13,573.021 -633.46,569.626 -617.247,587.14 		"/>
		
			<line display="inline" fill="none" stroke="#A6B6BC" stroke-miterlimit="10" x1="-751.857" y1="672.76" x2="-650.116" y2="535.954"/>
		
			<line display="inline" fill="none" stroke="#A6B6BC" stroke-miterlimit="10" x1="-646.38" y1="673.699" x2="-613.043" y2="652.892"/>
		
			<line display="inline" fill="none" stroke="#A6B6BC" stroke-miterlimit="10" x1="-636.63" y1="673.585" x2="-613.088" y2="658.891"/>
		<rect x="-673.11" y="621.57" display="inline" fill="#7B8E95" width="43.256" height="7.916"/>
		<g display="inline">
			<polygon fill="#7B8E95" points="-431.515,328.074 -413.302,303.846 -395.519,303.846 -395.519,299.883 -399.128,299.883 
				-417.968,299.883 -435.993,323.865 -444.571,323.865 -547.438,456.188 -540.106,456.188 -440.175,328.074 			"/>
			<polygon fill="#7B8E95" points="-416.968,346.908 -416.968,354.352 -393.019,381.473 -393.019,458.598 -390.911,456.13 
				-390.911,376.416 			"/>
			<polygon fill="#BFC4BE" points="-417.968,457.13 -404.503,471.873 -395.019,460.769 -395.019,382.852 -417.968,356.861 			"/>
		</g>
		<g display="inline">
			<g>
				<path fill="#BFC4BE" d="M-411.743,305.966l-18.211,24.228h-8.672l-98.148,125.978l1.402,0.021l5.037-0.061h16.918l14.74-20.366
					l16.764-23.153h0.17l11.961-16.349h-0.049l48.492-66.147c1.334-1.807,2.793-4.1,4.371-6.865v20.09l14.029,16.002v-53.374h-8.804
					V305.966z"/>
				<polygon fill="#BFC4BE" points="-395.519,305.966 -400.938,305.966 -400.938,361.621 -395.519,367.805 				"/>
			</g>
		</g>
		<rect x="-455.123" y="404.545" display="inline" fill="#BFC4BE" width="43.256" height="7.916"/>
		<g display="inline">
			<g>
				<polyline fill="#7B8E95" points="-485.038,623.184 -467.138,578.234 -467.138,520.825 -531.637,675.783 -506.037,675.783 
					-485.038,623.184 				"/>
				<polyline fill="#7B8E95" points="-438.638,643.983 -431.269,662.585 -450.054,675.783 -400.639,675.783 -465.038,520.586 
					-465.138,520.825 -465.138,578.234 -465.038,577.984 -447.038,623.184 				"/>
			</g>
		</g>
		<polygon display="inline" fill="#BFC4BE" points="-450.97,621.146 -490.95,621.146 -490.95,619.146 -451.766,619.146 		"/>
		<polygon display="inline" fill="#BFC4BE" points="-444.012,642.523 -502.054,642.523 -502.054,640.523 -444.846,640.523 		"/>
		<polygon display="inline" fill="#BFC4BE" points="-447.058,631.936 -498.188,631.936 -498.188,629.936 -447.85,629.936 		"/>
		<circle display="inline" fill="#FFFFFF" cx="-494.386" cy="619.146" r="4.001"/>
		<circle display="inline" fill="#FFFFFF" cx="-498.887" cy="629.935" r="4.001"/>
		<circle display="inline" fill="#FFFFFF" cx="-502.889" cy="640.522" r="4.001"/>
		<polygon display="inline" fill="#8897A3" points="-236.253,622.321 -276.233,622.321 -276.233,620.321 -237.049,620.321 		"/>
		<polygon display="inline" fill="#8897A3" points="-229.295,643.698 -287.337,643.698 -287.337,641.698 -230.129,641.698 		"/>
		<polygon display="inline" fill="#8897A3" points="-232.341,633.11 -283.472,633.11 -283.472,631.11 -233.133,631.11 		"/>
		<circle display="inline" fill="#8897A3" cx="-279.669" cy="620.32" r="4.001"/>
		<circle display="inline" fill="#8897A3" cx="-284.17" cy="631.109" r="4.001"/>
		<circle display="inline" fill="#8897A3" cx="-288.172" cy="641.697" r="4.001"/>
		<g display="inline">
			<polygon fill="#7B8E95" points="-291.32,676.958 -279.22,646.646 -282.449,646.646 -293.353,673.958 -312.422,673.958 
				-255.421,537.015 -255.421,578.834 -270.629,617.021 -267.399,617.021 -252.421,579.409 -252.421,522 -316.92,676.958 			"/>
			<polygon fill="#7B8E95" points="-185.922,676.958 -250.321,521.761 -250.421,522 -250.421,579.409 -250.321,579.159 
				-232.321,624.358 -223.921,645.158 -216.552,663.76 -235.337,676.958 			"/>
		</g>
		<g display="inline">
			<g>
				<polyline fill="#7B8E95" points="-1120.748,837.113 -1102.848,792.164 -1102.848,734.755 -1167.347,889.713 -1141.747,889.713 
					-1120.748,837.113 				"/>
			</g>
		</g>
		<g display="inline">
			<polygon fill="#BFC4BE" points="-1130.499,835.076 -1082.083,835.076 -1082.88,833.076 -1129.703,833.076 			"/>
			<polygon fill="#BFC4BE" points="-1138.233,854.453 -1139.031,856.453 -1073.534,856.453 -1074.334,854.453 			"/>
			<polygon fill="#BFC4BE" points="-1134.805,845.865 -1077.772,845.865 -1078.572,843.865 -1134.006,843.865 			"/>
			<polygon fill="#BFC4BE" points="-1094.278,804.456 -1095.074,802.456 -1117.509,802.456 -1118.305,804.456 			"/>
			<polygon fill="#BFC4BE" points="-1126.818,825.833 -1085.765,825.833 -1086.561,823.833 -1126.022,823.833 			"/>
			<polygon fill="#BFC4BE" points="-1122.602,815.245 -1089.981,815.245 -1090.777,813.245 -1121.805,813.245 			"/>
		</g>
		<circle display="inline" fill="#7B8E95" cx="-1078.878" cy="833.076" r="4.001"/>
		<circle display="inline" fill="#7B8E95" cx="-1074.68" cy="843.865" r="4.001"/>
		<circle display="inline" fill="#7B8E95" cx="-1070.678" cy="854.452" r="4.001"/>
		<circle display="inline" fill="#7B8E95" cx="-1091.277" cy="802.455" r="4.001"/>
		<circle display="inline" fill="#7B8E95" cx="-1086.881" cy="813.245" r="4.001"/>
		<circle display="inline" fill="#7B8E95" cx="-1082.88" cy="823.832" r="4.001"/>
		<polyline display="inline" fill="#BFC4BE" points="-1129.579,836.994 -1111.678,792.045 -1111.678,734.636 -1176.177,889.594 
			-1150.578,889.594 -1129.579,836.994 		"/>
		<polygon display="inline" fill="#BFC4BE" points="-929.929,897.396 -956.679,897.396 -901.456,742.943 -879.263,754.961 		"/>
		<polygon display="inline" fill="#7B8E95" points="-972.941,814.628 -953.898,807.623 -963.887,791.229 -829.968,842.842 
			-812.957,876.255 		"/>
		<polygon display="inline" fill="#7B8E95" points="-847.104,897.396 -820.271,897.396 -873.732,746.538 -901.456,742.943 		"/>
		<polygon display="inline" fill="#BFC4BE" points="-606.515,895.092 -633.07,895.092 -614.504,843.061 -598.731,873.253 		"/>
		<polygon display="inline" fill="#BFC4BE" points="-715.861,895.092 -742.611,895.092 -687.389,740.639 -665.195,752.656 		"/>
		<g display="inline">
			<path fill="#7B8E95" d="M-772.165,813.791c6.802-3.913,13.755-7.659,20.854-11.227c-4.839-4.727-9.818-9.369-14.938-13.931
				c58.016,6.122,111.136,23.695,156.657,49.209c4.128,11.764,7.748,23.575,10.859,35.408
				C-646.982,841.646-706.203,819.868-772.165,813.791z"/>
		</g>
		<g display="inline">
			<polygon fill="#7B8E95" points="-633.037,895.092 -606.204,895.092 -659.665,744.233 -687.389,740.639 			"/>
		</g>
		<path display="inline" fill="#7B8E95" d="M-465.085,821.224c0,4.479-3.631,8.109-8.109,8.109l0,0
			c-4.479,0-8.109-3.631-8.109-8.109l0,0c0-4.479,3.631-8.107,8.109-8.107l0,0C-468.716,813.114-465.085,816.745-465.085,821.224
			L-465.085,821.224z"/>
		<g display="inline">
			<path fill="#7B8E95" d="M-493.497,744.595l13.756-9.448c-1.855-2.063-0.251-1.125-2.167-3.416
				c-74.876,36.498-70.434,116.938-22.027,149.834c3.4,0,6.802,0,10.202,0C-541.899,848.595-541.823,777.438-493.497,744.595z"/>
			<path fill="#BFC4BE" d="M-457.701,740.793l-22.602-5.229l-12.952,8.862l-0.242,0.166c-48.326,32.842-48.402,104-0.236,136.97
				c0.08,0.056,0.156,0.11,0.236,0.166c10.064,0,25.596,0.168,35.66,0.168C-506.243,849-519.429,785.646-457.701,740.793z"/>
		</g>
		<polygon display="inline" fill="#7B8E95" points="-386.702,881.896 -418.911,881.896 -481.908,731.729 -443.429,740.854 		"/>
	</g>
</g>
<g id="Layer_2">
	<g>
		<path fill="#FFFFFF" d="M288.371,446.801c10.438-17.019,17.684-29.688,21.695-37.931l-60.021,34.654
			c-4.707,2.717-10.065,4.153-15.5,4.153c-5.434,0-10.793-1.438-15.5-4.153l-58.074-33.529l-18.086,15.663l50.021,43.318
			c35.938-6.064,89.949-15.938,93.285-18.59C286.51,449.835,287.28,448.577,288.371,446.801z"/>
		<path fill="#FFFFFF" d="M290.075,447.848c-1.13,1.842-1.911,3.114-2.196,3.611c-0.518,0.905-1.479,2.592-48.639,11.341
			c-12.971,2.404-25.958,4.691-34.893,6.241h90.385l50.096-43.383l-25.535-22.113l-6.213,3.589
			C308.496,417.363,298.847,433.551,290.075,447.848z"/>
		<path fill="#FFFFFF" d="M379.288,239.171c4.543-0.002,8.494,2.521,10.532,6.242l0.471-12.867
			c-0.001-5.97-4.838-10.867-10.819-10.962l-140.283,53.414l-0.19-0.5L88.14,221.584c-5.989,0.089-10.833,4.989-10.833,10.999
			l0.273,10.015l1.422,1c2.199-2.7,5.549-4.427,9.305-4.427l151.46,53.125L379.288,239.171z"/>
		<path fill="#FFFFFF" d="M75.307,232.61c0-7.196,5.832-13.027,13-13.027h0.17l0.161,0.056l151.114,53.004l139.354-53.06h0.184
			c7.168,0,13,5.832,13,13l-0.514,14.045l27.388-19.248V126.415c0-10.328-5.556-19.951-14.5-25.114l-71.299-41.164l17.563-11.502
			C339.644,43.656,274.518,15.25,244.65,9.387l-0.15-0.042c-3.209-1.173-6.565-1.768-9.981-1.768c-5.076,0-10.081,1.34-14.474,3.876
			L64.424,101.299c-8.944,5.164-14.5,14.787-14.5,25.115v96.748l25.615,18.001L75.307,232.61z"/>
		<path fill="#FFFFFF" d="M419.164,234.245l-27.772,22.957l-0.102,2.715v55.377c0,6.627-3.369,8.328-12,12l-139.522,53.983
			l-151.46-53.983c-8.101-3.164-12-5.373-12-12v-46.043l-0.519-18.957l-25.865-21.379v77.194c0,10.806,5.779,40.804,14.5,45.837
			l155.621,89.847c4.401,2.542,9.416,3.887,14.5,3.887c5.082,0,10.098-1.345,14.5-3.887l155.619-89.847
			c8.723-5.035,14.5-35.031,14.5-45.837V234.245z"/>
		<path fill="#FFFFFF" d="M260.66,339.987c-1.063-1.936-1.83-3.393-2.111-4.047c0.545-2.175,5.375-11.871,10.477-19.479l-3.32-2.229
			c-3.457,5.155-11.646,19.349-11.158,22.274c0.176,1.05,2.893,6.117,8.067,15.057l3.386,7.98l188.258-155.602L260.66,339.987z"/>
		<path fill="none" stroke="#FFFFFF" stroke-width="2" stroke-miterlimit="10" d="M146.053,308.369
			c2.293,8.532,10.666,36.306,23.066,38.562c5.779,1.051,15.258,0.582,20.286-2.729l-11.428-9.444
			c-1.046,0.889-2.397,1.425-3.877,1.425c-3.313,0-6-2.688-6-6c0-1.071,0.284-2.075,0.776-2.946L146.053,308.369z"/>
		<polygon fill="#FFFFFF" points="219.682,343.677 23.808,206.031 212.069,361.636 		"/>
		<path fill="#FFFFFF" d="M236.705,356.72c1.726-3.072,2.887-3.264,3.191-3.248c0.996,0.046,2.314,1.82,2.883,3.078l0.813,1.83
			l3.658-1.621l-0.813-1.828c-0.238-0.538-2.443-5.27-6.35-5.452c-2.573-0.116-4.836,1.659-6.871,5.282l-0.979,1.744l3.488,1.959
			L236.705,356.72z"/>
		<path fill="none" stroke="#FFFFFF" stroke-width="2" stroke-miterlimit="10" d="M300.101,336.179
			c-1.163,0-2.244-0.336-3.164-0.907l-11.368,9.396c5.18,2.887,14.018,3.262,19.514,2.264c11.778-2.143,19.924-27.303,22.675-37.131
			l-22.06,18.23c0.258,0.668,0.403,1.393,0.403,2.148C306.101,333.492,303.414,336.179,300.101,336.179z"/>
	</g>
	<g>
		<path fill="#FFFFFF" d="M220.245,585.456v-15.487c13.569-7.993,37.314-23.886,38.481-24.668c2.244-1.504,3.324-4.239,2.713-6.871
			c-0.345-1.485-3.68-14.645-14.416-19.315c-4.313-1.876-11.421-2.983-20.785,2.401c-9.01,5.181-19.815,12.15-20.271,12.444
			c-1.51,0.976-2.021,2.001-2.148,3.518l-0.039,0.008l-0.136,63.098c0.132,2.938,1.805,5.604,4.424,6.982
			c1.214,0.64,2.544,0.956,3.87,0.956c1.213,0,2.423-0.268,3.539-0.793l46.665-31.984l-0.037-18.977L220.245,585.456z
			 M220.245,540.31c3.796-2.5,7.991-5.478,12.136-8.317c3.561-2.44,6.028-4.132,9.652-2.611c2.442,1.024,3.853,5.049,5.042,7.539
			c-6.086,4.035-17.433,12.555-26.83,18.391V540.31z"/>
		<path fill="#FFFFFF" d="M176.021,530.578c-4.353,1.99-10.909,5.103-17.618,8.714c-22.432,12.074-26.395,18.799-27.314,23.785
			c-2.104,11.413-1.635,37.522-1.614,38.629l0.13,6.867h46.417v7.2l-76.616,52.515v19.573l89.621-61.313
			c2.26-1.549,3.609-4.111,3.609-6.853V505.327l-16.614,11.948V530.578z M176.021,594.573h-32.606
			c0-9.054,0.262-22.301,1.405-28.754c1.78-3.729,15.226-12.135,31.201-19.819V594.573z"/>
		<polygon fill="#FFFFFF" points="273.459,610.591 290.071,610.606 290.104,566.297 273.479,577.69 		"/>
		<path fill="#FFFFFF" d="M319.012,522.291c-2.697-1.446-5.446-0.771-7.998,0.925l-14.125,9.814l-6.747,4.688v-4.688v-26.113
			l-16.596,11.609l-0.014,14.504l-0.033,34.89l33.257-22.823v0.028l-0.022,20.155l-0.049,45.311l16.614,0.019l0.061-56.726
			l0.022-20.155l0.001-0.698l0.003-3.413C323.391,526.558,321.707,523.741,319.012,522.291z"/>
		<path fill="#FFFFFF" d="M372.188,479.405v2.266c-7.085,4.815-35.666,24.09-35.666,24.09v20.225l35.666-24.722v1.332v15.572v3.237
			v11.625v58.928c-5.801,0.579-11.159,0.603-13.241-0.035c-6.643-3.813-7.014-41.09-6.495-58.893c0.129-4.43,0.313-7.658,0.469-8.86
			l-12.859,8.86l-3.295,2.271c-0.174,3.569-0.229,16.923-0.241,18.886c-0.093,15.052,1.327,41.715,11.896,51.219
			c3.272,2.943,8.307,4.325,16.004,4.325c1.597,0,3.312-0.059,5.146-0.177c6.399-0.409,12.07-1.404,12.309-1.446
			c3.998-0.705,6.921-4.316,6.921-8.546V533.03v-23.013v-20.142V387.733l-16.612,11.276V479.405z"/>
		<polygon fill="#FFFFFF" points="415.798,451.423 399.184,462.811 399.184,482.759 415.798,471.372 		"/>
		<path fill="#FFFFFF" d="M417.545,568.745l-1.747,2.813V533.03v-51.899l-16.614,11.387v40.513v67.646
			c0,3.711,2.462,6.971,6.027,7.989c0.756,0.214,1.523,0.318,2.278,0.318c2.821,0,5.516-1.438,7.059-3.925l22.978-36.414
			L417.545,568.745z"/>
		<path fill="#FFFFFF" d="M101.051,608.521h18l-0.426-78.478l27.395-18.279l-0.631-21.219l-26.881,17.937l-0.658-121.435
			L6.564,608.521h19.643l12.346-25.048l62.145-41.467L101.051,608.521z M54.447,551.229l45.805-92.928l0.33,62.143L54.447,551.229z"
			/>
	</g>
	<path fill="#FFFFFF" d="M181.981,330.286c0,3.384-2.743,6.127-6.126,6.127l0,0c-3.384,0-6.127-2.743-6.127-6.127v-1.112
		c0-3.383,2.743-6.126,6.127-6.126l0,0c3.383,0,6.126,2.743,6.126,6.126V330.286z"/>
	<path fill="#FFFFFF" d="M308.662,332.156c0,2.351-1.905,4.257-4.256,4.257h-4.116c-2.351,0-4.257-1.906-4.257-4.257l0,0
		c0-2.351,1.906-4.257,4.257-4.257h4.116C306.757,327.899,308.662,329.806,308.662,332.156L308.662,332.156z"/>
</g>
</svg>
