<?xml version="1.0" encoding="utf-8"?>
<!-- Generator: Adobe Illustrator 16.0.0, SVG Export Plug-In . SVG Version: 6.00 Build 0)  -->
<!DOCTYPE svg PUBLIC "-//W3C//DTD SVG 1.1//EN" "http://www.w3.org/Graphics/SVG/1.1/DTD/svg11.dtd">
<svg version="1.1" id="Layer_1" xmlns="http://www.w3.org/2000/svg" xmlns:xlink="http://www.w3.org/1999/xlink" x="0px" y="0px"
	 width="449.695px" height="680.285px" viewBox="-8.75 1.51 449.695 680.285" enable-background="new -8.75 1.51 449.695 680.285"
	 xml:space="preserve">
<g id="Layer_1_2_">
	<g id="Layer_1_1_" display="none">
		<g display="inline">
			<g>
				
					<text transform="matrix(1 0 0 1 -1195.5977 96.644)" fill="none" stroke="#000000" font-family="'MyriadPro-Regular'" font-size="12">1</text>
				
					<text transform="matrix(1 0 0 1 -1195.5977 311.3628)" fill="none" stroke="#000000" font-family="'MyriadPro-Regular'" font-size="12">6</text>
				
					<text transform="matrix(1 0 0 1 -1195.5977 526.0815)" fill="none" stroke="#000000" font-family="'MyriadPro-Regular'" font-size="12">11</text>
				
					<text transform="matrix(1 0 0 1 -1195.5977 740.7983)" fill="none" stroke="#000000" font-family="'MyriadPro-Regular'" font-size="12">16</text>
				
					<text transform="matrix(1 0 0 1 -1195.5977 955.5171)" fill="none" stroke="#000000" font-family="'MyriadPro-Regular'" font-size="12">21</text>
			</g>
			<g>
				
					<text transform="matrix(1 0 0 1 -551.4443 96.644)" fill="none" stroke="#000000" font-family="'MyriadPro-Regular'" font-size="12">4</text>
				
					<text transform="matrix(1 0 0 1 -551.4443 311.3628)" fill="none" stroke="#000000" font-family="'MyriadPro-Regular'" font-size="12">9</text>
				
					<text transform="matrix(1 0 0 1 -551.4443 526.0815)" fill="none" stroke="#000000" font-family="'MyriadPro-Regular'" font-size="12">14</text>
				
					<text transform="matrix(1 0 0 1 -551.4443 740.7983)" fill="none" stroke="#000000" font-family="'MyriadPro-Regular'" font-size="12">19</text>
				
					<text transform="matrix(1 0 0 1 -551.4443 955.5171)" fill="none" stroke="#000000" font-family="'MyriadPro-Regular'" font-size="12">24</text>
			</g>
			<g>
				
					<text transform="matrix(1 0 0 1 -336.7266 96.644)" fill="none" stroke="#000000" font-family="'MyriadPro-Regular'" font-size="12">5</text>
				
					<text transform="matrix(1 0 0 1 -336.7266 311.3628)" fill="none" stroke="#000000" font-family="'MyriadPro-Regular'" font-size="12">10</text>
				
					<text transform="matrix(1 0 0 1 -336.7266 526.0815)" fill="none" stroke="#000000" font-family="'MyriadPro-Regular'" font-size="12">15</text>
				
					<text transform="matrix(1 0 0 1 -336.7266 740.7983)" fill="none" stroke="#000000" font-family="'MyriadPro-Regular'" font-size="12">20</text>
				
					<text transform="matrix(1 0 0 1 -336.7266 955.5171)" fill="none" stroke="#000000" font-family="'MyriadPro-Regular'" font-size="12">25</text>
			</g>
			<g>
				
					<text transform="matrix(1 0 0 1 -766.1621 93.644)" fill="none" stroke="#000000" font-family="'MyriadPro-Regular'" font-size="12">3</text>
				
					<text transform="matrix(1 0 0 1 -766.1621 308.3628)" fill="none" stroke="#000000" font-family="'MyriadPro-Regular'" font-size="12">8</text>
				
					<text transform="matrix(1 0 0 1 -766.1621 523.0815)" fill="none" stroke="#000000" font-family="'MyriadPro-Regular'" font-size="12">13</text>
				
					<text transform="matrix(1 0 0 1 -766.1621 737.7983)" fill="none" stroke="#000000" font-family="'MyriadPro-Regular'" font-size="12">18</text>
				
					<text transform="matrix(1 0 0 1 -766.1621 952.5171)" fill="none" stroke="#000000" font-family="'MyriadPro-Regular'" font-size="12">23</text>
			</g>
			<g>
				
					<text transform="matrix(1 0 0 1 -980.8799 93.644)" fill="none" stroke="#000000" font-family="'MyriadPro-Regular'" font-size="12">2</text>
				
					<text transform="matrix(1 0 0 1 -980.8799 308.3628)" fill="none" stroke="#000000" font-family="'MyriadPro-Regular'" font-size="12">7</text>
				
					<text transform="matrix(1 0 0 1 -980.8799 523.0815)" fill="none" stroke="#000000" font-family="'MyriadPro-Regular'" font-size="12">12</text>
				
					<text transform="matrix(1 0 0 1 -980.8799 737.7983)" fill="none" stroke="#000000" font-family="'MyriadPro-Regular'" font-size="12">17</text>
				
					<text transform="matrix(1 0 0 1 -980.8799 952.5171)" fill="none" stroke="#000000" font-family="'MyriadPro-Regular'" font-size="12">22</text>
			</g>
		</g>
		<text transform="matrix(1 0 0 1 -481.0918 -19.188)" display="inline" font-family="'ArialMT'" font-size="52">Agendi.</text>
		<text transform="matrix(1 0 0 1 -313.0293 -19.188)" display="inline" font-family="'ArialMT'" font-size="31">NINJALOGO</text>
		<text transform="matrix(1 0 0 1 -187.8218 18.0112)" display="inline" fill="#515151" font-family="'ArialMT'" font-size="31">v1</text>
	</g>
	<g id="logo_not_merged" display="none">
		<polygon display="inline" stroke="#FFFFFF" stroke-width="2" stroke-miterlimit="10" points="319.291,441.974 268.041,397.591 
			319.291,353.208 421.791,353.208 473.041,397.591 421.791,441.974 		"/>
		<path display="inline" fill="none" stroke="#FFFFFF" stroke-width="2" stroke-miterlimit="10" d="M319.291,441.974
			c0,0,92.405-15.574,94.405-19.074s28.521-45.314,27.762-52.656"/>
		<path display="inline" stroke="#FFFFFF" stroke-width="2" stroke-miterlimit="10" d="M531.85,72.366l-69.892-40.352l17.738-11.618
			c0,0-75.078-33.563-108.168-40.058c-8.263-3.021-17.531-2.304-25.302,2.181l-155.62,89.847c-9.282,5.358-15,15.263-15,25.98
			v179.695c0,10.718,5.718,41.346,15,46.704l155.62,89.846c9.282,5.359,20.721,5.359,30,0l155.62-89.846
			c9.281-5.358,15-35.985,15-46.704V98.347C546.85,87.629,541.132,77.725,531.85,72.366z"/>
		<path display="inline" fill="#FFFFFF" d="M517.976,287.227c0,6.627-3.368,8.328-12,12L366.453,353.21l-151.46-53.983
			c-8.1-3.164-12-5.373-12-12v-64.125c0-6.627,5.372-12,12-12l151.46,53.125l139.521-53.125c6.63,0,12,5.373,12,12L517.976,287.227
			L517.976,287.227z"/>
		<path display="inline" fill="none" stroke="#FFFFFF" stroke-width="2" stroke-linecap="square" stroke-miterlimit="10" d="
			M366.452,245.641l139.521-53.125c6.627,0,12,5.373,12,12l-3.188,87.188"/>
		<path display="inline" fill="none" stroke="#FFFFFF" stroke-width="2" stroke-miterlimit="10" d="M205.119,282.447l-2.127-77.932
			c0-6.627,5.372-12,12-12l151.46,53.125"/>
		<g display="inline">
			<path d="M408.101,310.529c0,8.285,15.52,9.816,23.667,8.334c14.666-2.668,23.703-41.043,23.703-41.043
				S408.101,302.246,408.101,310.529z"/>
			<circle fill="#FFFFFF" cx="426.786" cy="302.113" r="6"/>
		</g>
		<polygon display="inline" stroke="#FFFFFF" stroke-miterlimit="10" points="392.483,332.292 384.451,313.343 591.118,168.113 		
			"/>
		<g display="inline">
			<path d="M319.472,310.529c0,8.285-15.517,9.816-23.667,8.334c-14.666-2.668-23.703-41.043-23.703-41.043
				S319.472,302.246,319.472,310.529z"/>
			<circle fill="#FFFFFF" cx="300.786" cy="302.113" r="6"/>
		</g>
		<polygon display="inline" stroke="#FFFFFF" stroke-miterlimit="10" points="338.953,334.382 346.985,315.434 140.318,170.203 		
			"/>
		<path display="inline" fill="none" stroke="#000000" stroke-width="4" stroke-linecap="square" stroke-miterlimit="10" d="
			M361.65,327.673c5.391-9.604,9.646,0,9.646,0"/>
		<path display="inline" fill="none" stroke="#000000" stroke-width="4" stroke-miterlimit="10" d="M394.048,327.673
			c0,0-10.596-18.06-10.846-19.56s5.595-13,10.846-20.834"/>
	</g>
	<g id="ninja_head" display="none">
		<g display="inline">
			<g>
				<path fill="#151819" d="M870.966-45.093c-5.17,2.984-8.382,8.547-8.382,14.516v54.773l14.84,10.43l-0.133-4.86
					c0-4.089,3.314-7.402,7.387-7.402h0.099l0.093,0.032l85.864,30.117l79.183-30.149h0.104c4.071,0,7.388,3.313,7.388,7.387
					l-0.292,7.979l15.847-11.135v-57.172c0-5.969-3.211-11.531-8.381-14.516l-39.838-23l0.531-0.349l9.813-6.427l-57.629-21.18
					l-7.147-2.627l-11.062,2.284L870.966-45.093z"/>
				<path d="M884.678,33.491l86.063,30.188l79.276-30.188c2.581,0,4.825,1.436,5.983,3.549l0.268-7.311
					c-0.001-3.392-2.749-6.175-6.146-6.229l-79.71,30.35l-0.107-0.284l-85.721-30.065c-3.402,0.051-6.154,2.834-6.154,6.249
					l0.155,5.689l0.808,0.567C880.641,34.474,882.545,33.491,884.678,33.491z"/>
				<path fill="#151819" d="M1064.578,97.819c5.041-2.91,8.381-20.104,8.381-26.291V30.46l-16.066,13.279l-0.057,1.543v31.465
					c0,3.766-1.915,4.732-6.818,6.818l-79.276,30.674l-86.063-30.674c-4.602-1.798-6.815-3.053-6.815-6.818V50.585l-0.295-10.771
					l-14.98-12.383v44.098c0,6.188,3.341,23.381,8.382,26.291l88.426,51.053c5.169,2.984,11.594,2.984,16.764,0L1064.578,97.819z"/>
				<path d="M1007.852,94.724c6.693-1.217,11.32-15.514,12.887-21.1l-12.534,10.36c0.146,0.38,0.229,0.79,0.229,1.222
					c0,1.883-1.522,3.408-3.407,3.408c-0.66,0-1.274-0.189-1.8-0.516l-6.46,5.339C999.707,95.078,1004.729,95.29,1007.852,94.724z"
					/>
				<path fill="#FFFFFF" d="M1012.59,128.491l3.63-2.096l48.646-28.084c5.302-3.061,8.665-20.318,8.665-26.783V29.99l25.051-20.705
					l-0.345-0.452l-24.706,17.362v-56.772c0-6.172-3.321-11.922-8.665-15.008l-39.591-22.856l-0.531,0.349l39.838,23
					c5.17,2.984,8.381,8.547,8.381,14.516v57.172l-15.847,11.135l0.292-7.979c0-4.073-3.313-7.387-7.39-7.387h-0.104L970.73,52.513
					l-85.864-30.117l-0.093-0.032h-0.099c-4.072,0-7.387,3.313-7.387,7.402l0.133,4.86l-14.84-10.43v-54.773
					c0-5.969,3.212-11.531,8.382-14.516l88.425-51.053l-0.143-0.245l-0.146-0.247l-88.42,51.052
					c-5.345,3.086-8.665,8.836-8.665,15.008v54.375L842.41,10.021l-0.344,0.451l19.947,16.49v44.566
					c0,6.465,3.362,23.723,8.665,26.783l54.991,31.75l33.436,19.303c2.674,1.542,5.67,2.313,8.662,2.313
					c2.997,0,5.993-0.771,8.666-2.313l34.472-19.9 M959.391,148.872l-88.425-51.053c-5.041-2.91-8.382-20.104-8.382-26.291V27.431
					l14.981,12.383l0.294,10.771v26.162c0,3.766,2.217,5.021,6.815,6.818l86.063,30.674l79.276-30.674
					c4.903-2.086,6.818-3.053,6.818-6.818V45.282l0.057-1.543l16.066-13.279v41.068c0,6.188-3.34,23.381-8.381,26.291
					l-88.426,51.053C970.982,151.856,964.56,151.856,959.391,148.872z M930.459,83.532c-0.279,0.494-0.441,1.064-0.441,1.674
					c0,1.883,1.525,3.408,3.409,3.408c0.841,0,1.609-0.305,2.203-0.809l6.493,5.367c-2.858,1.882-8.242,2.148-11.527,1.551
					c-7.044-1.281-11.804-17.063-13.104-21.911L930.459,83.532z M959.326,92.875l-4.324,10.205L848.028,14.663L959.326,92.875z
					 M966.464,100.165l0.555-0.991c1.157-2.06,2.445-3.067,3.905-3.003c2.218,0.104,3.475,2.793,3.607,3.099l0.461,1.038
					l-2.079,0.922l-0.46-1.039c-0.322-0.717-1.072-1.725-1.639-1.75c-0.165,0-0.834,0.1-1.813,1.846l-0.556,0.99L966.464,100.165z
					 M982.611,90.778l110.004-77.303L985.64,101.891l-1.923-4.537c-2.938-5.078-4.481-7.957-4.584-8.553
					c-0.275-1.664,4.376-9.727,6.339-12.656l1.891,1.264c-2.896,4.324-5.645,9.833-5.95,11.07
					C981.57,88.851,982.007,89.679,982.611,90.778z M1003.224,88.099c0.522,0.326,1.14,0.516,1.798,0.516
					c1.887,0,3.409-1.525,3.409-3.408c0-0.432-0.084-0.842-0.229-1.222l12.534-10.36c-1.563,5.586-6.19,19.883-12.887,21.1
					c-3.123,0.566-8.145,0.354-11.088-1.286L1003.224,88.099z M878.428,29.75c0-3.415,2.752-6.198,6.154-6.249l85.721,30.065
					l0.107,0.284l79.71-30.35c3.399,0.054,6.146,2.837,6.146,6.229L1056,37.04c-1.158-2.113-3.402-3.549-5.983-3.549L970.74,63.679
					l-86.063-30.188c-2.133,0-4.037,0.982-5.287,2.516l-0.808-0.567L878.428,29.75z"/>
				<path d="M930.596,94.724c3.285,0.598,8.669,0.331,11.527-1.551l-6.493-5.367c-0.594,0.504-1.362,0.809-2.203,0.809
					c-1.884,0-3.409-1.525-3.409-3.408c0-0.609,0.162-1.18,0.441-1.674l-12.969-10.72C918.792,77.661,923.552,93.442,930.596,94.724
					z"/>
				<polygon points="848.028,14.663 955.002,103.08 959.326,92.875 				"/>
				<path d="M970.814,98.44c0.563,0.025,1.313,1.033,1.639,1.75l0.46,1.039l2.079-0.922l-0.461-1.038
					c-0.139-0.306-1.393-2.995-3.607-3.099c-1.46-0.064-2.748,0.943-3.905,3.003l-0.555,0.991l1.981,1.111l0.556-0.99
					C969.98,98.54,970.649,98.44,970.814,98.44z"/>
				<path d="M985.475,76.146c-1.963,2.93-6.614,10.992-6.339,12.656c0.103,0.596,1.646,3.475,4.584,8.553l1.923,4.537
					l106.976-88.416L982.611,90.778c-0.604-1.1-1.041-1.928-1.199-2.299c0.309-1.237,3.054-6.746,5.95-11.07L985.475,76.146z"/>
			</g>
		</g>
	</g>
	<g id="sharp_ninja_body" display="none">
		<path display="inline" fill="#151819" stroke="#FFFFFF" stroke-miterlimit="10" d="M874.62,393.266
			c0,0-38.455-44.043-51.455-43.093c-13,0.949-47.619,44.834-90.136,54.561c-42.52,9.723-78.431-16.016-87.375-23.71
			c-13.334-11.469-30.545-28.709-30.545-28.709l3.189,35.013c0,0,3.883,9.588,39.11,25.072c34.75,15.271,58.753,36.26,106.753,2.99
			c48-33.268,52.525-47.821,65.264-35.044c12.738,12.776,53.151,34.144,53.151,34.144L874.62,393.266z"/>
		<path display="inline" fill="#151819" stroke="#FFFFFF" stroke-miterlimit="10" d="M858.992,379.061
			c0,0-33.51-18.422-57.547-3.951c-24.038,14.472-51.025,68.835-68.705,75.956c-17.684,7.117-52.711,22.557-69.008,10.525
			c-10.191-7.521-5.622,10.934-1.369,14.475c4.252,3.541,61.237,2.711,85.885-12.285c24.645-14.996,40.747-40.539,52.782-58.994
			c12.034-18.455,33.023-23.738,42.895-17.976c9.869,5.767,15.935-4.988,15.935-4.988"/>
		<path display="inline" fill="#151819" d="M1007.539,497.355c-24.326-20.004-71.648-9.541-71.648-9.541l-3.078-2.842l22.533-17.514
			l34.271-54.941l0.368-31.393L862.824,368.91c0,0-18.099,46.313-20.407,60.551c-2.983,18.375,5.673,52.701,12.16,74.656
			l-11.673,31.324l-7.285,40.039l-24.254-24.088l-15.2,10.65l-14.685,40.422l42.672,0.623l-5.663-9.514l28.582,15.803h10.938
			l24.6-39l21.069-29.508c31.498-13.314,66.981-15.918,66.981-15.918l-19.374,13.506l5.688,6.057l-5.563,4.842l-8.063,42.24h57.067
			l-20-15.139l-1.423-8.998l24.003-11.842l5.748-35.387C1008.744,520.234,1012.08,501.089,1007.539,497.355z"/>
		<polyline display="inline" fill="#151819" stroke="#FFFFFF" stroke-miterlimit="10" points="878.486,443.212 892.053,493.097 
			911.333,539.398 943.134,619.14 931.136,606.82 848.561,462.515 		"/>
		<polygon display="inline" fill="#151819" points="939.278,633.242 909.645,624.226 917.579,581.728 926.658,579.707 
			946.268,608.205 963.749,627.892 		"/>
		<g display="inline">
			<polygon fill="#FFFFFF" points="1107.874,216.083 1107.67,216.437 1109.917,217.263 			"/>
			<g>
				<path fill="#151819" d="M867.427,265.58c-5.17,2.984-8.382,8.547-8.382,14.516v54.773l14.84,10.429l-0.133-4.86
					c0-4.088,3.314-7.4,7.387-7.4h0.099l0.093,0.031l85.864,30.117l79.183-30.148h0.104c4.07,0,7.387,3.313,7.387,7.387
					l-0.292,7.979l15.847-11.135v-57.17c0-5.97-3.211-11.531-8.381-14.517l-39.838-23l0.531-0.349l9.813-6.428l-57.629-21.181
					l-7.146-2.627l-11.063,2.284L867.427,265.58z"/>
				<path d="M881.139,344.166l86.063,30.187l79.276-30.187c2.582,0,4.825,1.435,5.983,3.547l0.271-7.311
					c-0.002-3.391-2.75-6.174-6.148-6.229l-79.71,30.351l-0.106-0.282l-85.722-30.067c-3.4,0.053-6.153,2.835-6.153,6.25
					l0.154,5.688l0.811,0.568C877.102,345.146,879.006,344.166,881.139,344.166z"/>
				<path fill="#151819" d="M1061.039,408.494c5.041-2.912,8.381-20.104,8.381-26.293v-41.068l-16.066,13.279l-0.057,1.543v31.465
					c0,3.767-1.915,4.732-6.818,6.818L967.2,424.912l-86.063-30.674c-4.602-1.799-6.815-3.053-6.815-6.818v-26.162l-0.294-10.771
					l-14.981-12.383v44.098c0,6.188,3.341,23.381,8.382,26.293l88.426,51.051c5.169,2.984,11.594,2.984,16.764,0L1061.039,408.494z"
					/>
				<path d="M1004.313,405.396c6.693-1.219,11.32-15.516,12.887-21.102l-12.534,10.36c0.146,0.38,0.229,0.789,0.229,1.222
					c0,1.883-1.522,3.408-3.406,3.408c-0.661,0-1.275-0.189-1.8-0.518l-6.461,5.342
					C996.168,405.751,1001.189,405.962,1004.313,405.396z"/>
				<path fill="#FFFFFF" d="M1009.051,439.164l3.63-2.096l48.646-28.082c5.302-3.064,8.665-20.318,8.665-26.785v-41.538
					l25.051-20.705l-0.345-0.452l-24.706,17.362v-56.772c0-6.172-3.321-11.923-8.665-15.008l-39.591-22.857l-0.531,0.351l39.838,23
					c5.17,2.983,8.381,8.547,8.381,14.517v57.172l-15.847,11.135l0.292-7.98c0-4.072-3.313-7.387-7.39-7.387h-0.104l-79.185,30.15
					l-85.862-30.119l-0.094-0.031h-0.098c-4.07,0-7.387,3.314-7.387,7.402l0.133,4.857l-14.84-10.428v-54.773
					c0-5.969,3.212-11.529,8.382-14.516l88.425-51.052l-0.143-0.246l-0.145-0.247l-88.425,51.053
					c-5.345,3.085-8.665,8.836-8.665,15.008v54.375l-19.604-13.777l-0.346,0.453l19.949,16.488v44.564
					c0,6.465,3.362,23.723,8.665,26.783l54.991,31.75l33.434,19.303c2.676,1.543,5.67,2.313,8.664,2.313
					c2.997,0,5.993-0.77,8.666-2.313l34.472-19.9 M955.852,459.544l-88.425-51.051c-5.041-2.912-8.382-20.104-8.382-26.293v-44.098
					l14.981,12.383l0.294,10.771v26.162c0,3.767,2.217,5.021,6.815,6.818l86.063,30.674l79.279-30.674
					c4.9-2.086,6.815-3.053,6.815-6.818v-31.465l0.06-1.543l16.063-13.279v41.068c0,6.188-3.34,23.381-8.381,26.293l-88.426,51.051
					C967.443,462.529,961.021,462.529,955.852,459.544z M926.92,394.205c-0.279,0.496-0.441,1.064-0.441,1.674
					c0,1.883,1.525,3.41,3.409,3.41c0.841,0,1.609-0.307,2.203-0.813l6.493,5.367c-2.858,1.883-8.242,2.148-11.527,1.555
					c-7.044-1.283-11.804-17.064-13.104-21.912L926.92,394.205z M955.787,403.548l-4.324,10.205l-106.974-88.417L955.787,403.548z
					 M962.925,410.837l0.558-0.992c1.154-2.059,2.442-3.064,3.902-3.002c2.219,0.104,3.475,2.793,3.607,3.102l0.461,1.039
					l-2.079,0.92l-0.46-1.039c-0.322-0.715-1.072-1.727-1.639-1.75c-0.165,0-0.834,0.1-1.813,1.846l-0.556,0.99L962.925,410.837z
					 M979.072,401.451l110.004-77.303l-106.973,88.418l-1.926-4.537c-2.938-5.08-4.481-7.957-4.584-8.557
					c-0.275-1.664,4.376-9.727,6.342-12.654l1.888,1.266c-2.896,4.322-5.645,9.832-5.95,11.068
					C978.031,399.523,978.468,400.351,979.072,401.451z M999.685,398.771c0.522,0.324,1.14,0.516,1.801,0.516
					c1.884,0,3.406-1.525,3.406-3.408c0-0.432-0.084-0.842-0.229-1.221l12.534-10.361c-1.563,5.586-6.19,19.883-12.886,21.102
					c-3.122,0.564-8.146,0.354-11.089-1.285L999.685,398.771z M874.889,340.423c0-3.415,2.752-6.198,6.154-6.25l85.721,30.067
					l0.107,0.283l79.71-30.352c3.399,0.055,6.146,2.837,6.146,6.229l-0.268,7.313c-1.158-2.112-3.402-3.549-5.983-3.549
					l-79.276,30.188l-86.063-30.188c-2.133,0-4.037,0.98-5.287,2.517l-0.808-0.565L874.889,340.423z"/>
				<path d="M927.057,405.396c3.285,0.598,8.669,0.328,11.527-1.553l-6.493-5.369c-0.594,0.508-1.362,0.813-2.203,0.813
					c-1.884,0-3.409-1.525-3.409-3.408c0-0.608,0.162-1.18,0.441-1.674l-12.969-10.721
					C915.253,388.333,920.013,404.115,927.057,405.396z"/>
				<polygon points="844.489,325.336 951.463,413.753 955.787,403.548 				"/>
				<path d="M967.275,409.115c0.563,0.021,1.313,1.033,1.639,1.75l0.46,1.039l2.079-0.922l-0.461-1.039
					c-0.136-0.309-1.393-2.994-3.607-3.102c-1.46-0.063-2.748,0.943-3.902,3.004l-0.558,0.99l1.981,1.113l0.556-0.992
					C966.441,409.212,967.11,409.115,967.275,409.115z"/>
				<path d="M981.936,386.818c-1.963,2.93-6.614,10.99-6.339,12.654c0.103,0.6,1.646,3.479,4.584,8.557l1.923,4.537l106.976-88.418
					l-110.004,77.303c-0.604-1.102-1.041-1.928-1.199-2.299c0.309-1.236,3.054-6.746,5.95-11.068L981.936,386.818z"/>
			</g>
		</g>
		<path display="inline" fill="#151819" stroke="#FFFFFF" stroke-miterlimit="10" d="M938.584,450.232c0,0-3.316,4.02-9.316,6.465
			c-6,2.441-42.512,16.924-42.512,16.924"/>
		<g display="inline">
			<polygon fill="#151819" points="1094.716,379.427 1084.969,373.766 1047.346,395.82 1050.013,372.583 1072.675,355.141 
				1103.903,338.049 1111.012,353.945 1113.748,368.768 			"/>
			<rect x="1111.012" y="323.174" fill="#151819" width="12.667" height="76.667"/>
			<polygon fill="#151819" points="1395.607,358.75 1376.607,371.992 1123.678,371.992 1123.678,345.507 1417.607,345.507 			"/>
		</g>
	</g>
	<g id="Layer_5" display="none">
		<g display="inline">
			<g>
				
					<rect x="-1200.598" y="78.601" fill="none" stroke="#727272" stroke-width="2" stroke-miterlimit="10" width="184.718" height="184.719"/>
				
					<rect x="-1200.598" y="293.318" fill="none" stroke="#727272" stroke-width="2" stroke-miterlimit="10" width="184.718" height="184.721"/>
				
					<rect x="-1200.598" y="508.039" fill="none" stroke="#727272" stroke-width="2" stroke-miterlimit="10" width="184.718" height="184.717"/>
				
					<rect x="-1200.598" y="722.755" fill="none" stroke="#727272" stroke-width="2" stroke-miterlimit="10" width="184.718" height="184.719"/>
				
					<rect x="-1200.598" y="937.474" fill="none" stroke="#727272" stroke-width="2" stroke-miterlimit="10" width="184.718" height="184.721"/>
			</g>
			<g>
				
					<rect x="-556.444" y="78.601" fill="none" stroke="#727272" stroke-width="2" stroke-miterlimit="10" width="184.719" height="184.719"/>
				
					<rect x="-556.444" y="293.318" fill="none" stroke="#727272" stroke-width="2" stroke-miterlimit="10" width="184.719" height="184.721"/>
				
					<rect x="-556.444" y="508.039" fill="none" stroke="#727272" stroke-width="2" stroke-miterlimit="10" width="184.719" height="184.717"/>
				
					<rect x="-556.444" y="722.755" fill="none" stroke="#727272" stroke-width="2" stroke-miterlimit="10" width="184.719" height="184.719"/>
				
					<rect x="-556.444" y="937.474" fill="none" stroke="#727272" stroke-width="2" stroke-miterlimit="10" width="184.719" height="184.721"/>
			</g>
			<g>
				
					<rect x="-341.726" y="78.601" fill="none" stroke="#727272" stroke-width="2" stroke-miterlimit="10" width="184.717" height="184.719"/>
				
					<rect x="-341.726" y="293.318" fill="none" stroke="#727272" stroke-width="2" stroke-miterlimit="10" width="184.717" height="184.721"/>
				
					<rect x="-341.726" y="508.039" fill="none" stroke="#727272" stroke-width="2" stroke-miterlimit="10" width="184.717" height="184.717"/>
				
					<rect x="-341.726" y="722.755" fill="none" stroke="#727272" stroke-width="2" stroke-miterlimit="10" width="184.717" height="184.719"/>
				
					<rect x="-341.726" y="937.474" fill="none" stroke="#727272" stroke-width="2" stroke-miterlimit="10" width="184.717" height="184.721"/>
			</g>
			<g>
				
					<rect x="-771.161" y="75.601" fill="none" stroke="#727272" stroke-width="2" stroke-miterlimit="10" width="184.717" height="184.719"/>
				
					<rect x="-771.161" y="290.318" fill="none" stroke="#727272" stroke-width="2" stroke-miterlimit="10" width="184.717" height="184.721"/>
				
					<rect x="-771.161" y="505.039" fill="none" stroke="#727272" stroke-width="2" stroke-miterlimit="10" width="184.717" height="184.717"/>
				
					<rect x="-771.161" y="719.755" fill="none" stroke="#727272" stroke-width="2" stroke-miterlimit="10" width="184.717" height="184.719"/>
				
					<rect x="-771.161" y="934.474" fill="none" stroke="#727272" stroke-width="2" stroke-miterlimit="10" width="184.717" height="184.721"/>
			</g>
			<g>
				
					<rect x="-985.88" y="75.601" fill="none" stroke="#727272" stroke-width="2" stroke-miterlimit="10" width="184.719" height="184.719"/>
				
					<rect x="-985.88" y="290.318" fill="none" stroke="#727272" stroke-width="2" stroke-miterlimit="10" width="184.719" height="184.721"/>
				
					<rect x="-985.88" y="505.039" fill="none" stroke="#727272" stroke-width="2" stroke-miterlimit="10" width="184.719" height="184.717"/>
				
					<rect x="-985.88" y="719.755" fill="none" stroke="#727272" stroke-width="2" stroke-miterlimit="10" width="184.719" height="184.719"/>
				
					<rect x="-985.88" y="934.474" fill="none" stroke="#727272" stroke-width="2" stroke-miterlimit="10" width="184.719" height="184.721"/>
			</g>
		</g>
	</g>
	<g id="Layer_6" display="none">
		<path display="inline" fill="#BFC4BE" d="M-462.893,820.32c0,5.084-4.122,9.205-9.206,9.205l0,0c-5.083,0-9.205-4.121-9.205-9.205
			l0,0c0-5.084,4.122-9.205,9.205-9.205l0,0C-467.015,811.115-462.893,815.236-462.893,820.32L-462.893,820.32z"/>
		<polygon display="inline" fill="#BFC4BE" points="-820.582,897.396 -847.138,897.396 -828.571,845.365 -812.799,875.558 		"/>
		<path display="inline" fill="#7B8E95" d="M-1053.357,100.94h-16.992l-105.264,140.039h18.262l13.297-18.37l15.119-20.888h0.154
			l10.789-14.746h-0.045l43.742-59.668c1.204-1.629,2.521-3.699,3.945-6.193v119.864h1.182h18.164V100.94H-1053.357z"/>
		<circle display="inline" fill="#BFC4BE" cx="-1091.973" cy="189.835" r="9.875"/>
		<polygon display="inline" fill="#BFC4BE" points="-1052.848,160.146 -1046.848,168.146 -1046.848,240.979 -1054.348,240.979 		"/>
		<polygon display="inline" fill="#BFC4BE" points="-1083.611,122.573 -1094.348,122.573 -1186.598,240.979 -1172.613,240.979 		"/>
		<g display="inline">
			<g>
				<circle fill="#BFC4BE" cx="-880.473" cy="194.835" r="9.875"/>
				<path fill="#BFC4BE" d="M-839.504,167.605V105.94h-2.354h-16.992l-16.261,21.632h-7.737l-92.25,118.406h10.984h3h15.262
					l13.297-18.371l15.119-20.888h0.154l10.789-14.746h-0.045l43.742-59.668c1.204-1.629,2.521-3.699,3.945-6.193v119.864h1.182
					h14.82h3.344h4.156v-72.833L-839.504,167.605z"/>
			</g>
		</g>
		<polyline display="inline" fill="none" stroke="#B6C8CE" stroke-miterlimit="10" points="-841.304,245.979 -841.304,173.146 
			-845.46,167.605 -845.46,105.94 		"/>
		<g display="inline">
			<path fill="#B6C8CE" d="M-878.788,195.538c0,0.476-0.386,0.861-0.861,0.861l0,0c-0.476,0-0.861-0.385-0.861-0.861v-5.646
				c0-0.476,0.386-0.861,0.861-0.861l0,0c0.476,0,0.861,0.386,0.861,0.861V195.538z"/>
			<path fill="#B6C8CE" d="M-885.296,196.639c-0.476,0-0.861-0.386-0.861-0.861l0,0c0-0.476,0.386-0.861,0.861-0.861h5.646
				c0.476,0,0.861,0.386,0.861,0.861l0,0c0,0.476-0.386,0.861-0.861,0.861H-885.296z"/>
		</g>
		<polygon display="inline" fill="#B6C8CE" points="-966.129,245.979 -967.396,245.979 -878.652,132.073 -870.921,132.073 
			-854.66,110.44 -839.504,110.44 -839.504,111.44 -854.16,111.44 -870.421,133.073 -878.164,133.073 		"/>
		<g display="inline">
			<g>
				<circle fill="#BFC4BE" cx="-672.787" cy="191.249" r="14.375"/>
				<path fill="#BFC4BE" d="M-630.568,162.605V100.94h-2.354h-16.992l-16.261,21.632h-7.737l-92.25,118.406h10.984h3h15.262
					l13.297-18.371l15.119-20.888h0.154l10.789-14.746h-0.045l43.742-59.668c1.204-1.629,2.521-3.699,3.945-6.193v119.864h1.182
					h14.82h3.344h4.156v-72.833L-630.568,162.605z"/>
			</g>
		</g>
		<polyline display="inline" fill="none" stroke="#B6C8CE" stroke-miterlimit="10" points="-632.368,240.979 -632.368,168.146 
			-636.524,162.605 -636.524,100.94 		"/>
		<g display="inline">
			<path fill="#FFFFFF" d="M-670.335,193.272c0,0.693-0.562,1.254-1.254,1.254l0,0c-0.692,0-1.254-0.561-1.254-1.254v-8.219
				c0-0.692,0.562-1.254,1.254-1.254l0,0c0.692,0,1.254,0.562,1.254,1.254V193.272z"/>
			<path fill="#FFFFFF" d="M-679.809,194.875c-0.692,0-1.254-0.562-1.254-1.254l0,0c0-0.692,0.562-1.254,1.254-1.254h8.22
				c0.692,0,1.254,0.562,1.254,1.254l0,0c0,0.692-0.562,1.254-1.254,1.254H-679.809z"/>
		</g>
		<polygon display="inline" fill="#B6C8CE" points="-757.193,240.979 -758.461,240.979 -669.717,127.073 -661.985,127.073 
			-645.725,105.44 -630.568,105.44 -630.568,106.44 -645.225,106.44 -661.485,128.073 -669.229,128.073 		"/>
		<g display="inline">
			<g>
				<path fill="#BFC4BE" d="M-437.612,196.458c0-2.876-2.333-5.208-5.208-5.208c-2.877,0-5.209,2.332-5.209,5.208"/>
				<path fill="#BFC4BE" d="M-448.029,196.458c0,2.876,2.332,5.208,5.209,5.208c2.875,0,5.208-2.332,5.208-5.208"/>
			</g>
		</g>
		<g display="inline">
			<path fill="#BFC4BE" d="M-414.771,106.965v20.09l21.448,24.466v-66.92h-2.609h-18.839l-18.025,23.982h-8.579l-102.054,131.188
				l10.253,0.136l5.038-0.06h16.918l14.74-20.367l16.763-23.156h0.171l11.96-16.347h-0.049l48.493-66.148
				C-417.809,112.025-416.349,109.731-414.771,106.965z"/>
			<polygon fill="#BFC4BE" points="-388.715,162.134 -414.771,132.626 -414.771,140.068 -390.822,167.19 -390.822,241.084 
				-388.715,237.459 			"/>
			<polygon fill="#BFC4BE" points="-391.822,245.486 -391.822,167.568 -414.771,141.58 -414.771,241.848 -401.306,256.59 			"/>
			<path fill="#B6CCD3" d="M-402.238,127.074l-2.232-2.528l-0.75,0.662l-0.135,109.028l13.658,14.205l-0.063,0.076l0.76,0.647
				l12.711-14.883v-2.962v-77.125L-402.238,127.074z M-402.238,128.585l22.948,25.989v77.918l-9.483,11.104l-13.465-14.743V128.585z
				"/>
		</g>
		<g display="inline">
			<g>
				<path fill="#BFC4BE" d="M-226.279,199.791c0-2.876-2.333-5.208-5.208-5.208c-2.877,0-5.209,2.332-5.209,5.208"/>
				<path fill="#BFC4BE" d="M-236.696,199.791c0,2.876,2.332,5.208,5.209,5.208c2.875,0,5.208-2.332,5.208-5.208"/>
			</g>
		</g>
		<polygon display="inline" fill="#B6C8CE" points="-533.238,240.415 -534.637,240.415 -436.764,114.791 -428.236,114.791 
			-410.303,90.934 -393.588,90.934 -393.588,92.037 -409.752,92.037 -427.686,115.894 -436.225,115.894 		"/>
		<g display="inline">
			<g>
				<polygon fill="#BFC4BE" points="-216.984,118.125 -198.772,93.896 -181.989,93.896 -181.989,89.934 -184.599,89.934 
					-203.438,89.934 -221.463,113.916 -230.042,113.916 -332.096,245.104 -324.649,245.202 -225.645,118.125 				"/>
				<path fill="#BFC4BE" d="M-203.438,112.298v20.09l21.448,24.466V95.017h-16.224l-18.212,24.228h-8.672l-98.147,125.976
					l1.401,0.021l5.038-0.06h16.918l14.74-20.367l16.763-23.156h0.171l11.96-16.347h-0.049l48.493-66.148
					C-206.476,117.358-205.016,115.064-203.438,112.298z"/>
				<polygon fill="#BFC4BE" points="-203.438,135.959 -203.438,143.401 -179.489,170.523 -179.489,247.648 -177.382,245.182 
					-177.382,165.467 				"/>
				<polygon fill="#BFC4BE" points="-203.438,245.182 -189.973,259.923 -180.489,248.818 -180.489,170.901 -203.438,144.913 				"/>
			</g>
		</g>
		<g display="inline">
			<g>
				<path fill="#BFC4BE" d="M-1093.34,413.541c0-2.875-2.333-5.207-5.208-5.207c-2.877,0-5.209,2.332-5.209,5.207"/>
				<path fill="#BFC4BE" d="M-1103.757,413.541c0,2.877,2.332,5.209,5.209,5.209c2.875,0,5.208-2.332,5.208-5.209"/>
			</g>
		</g>
		<g display="inline">
			<g>
				<polygon fill="#BFC4BE" points="-1085.045,330.875 -1066.833,306.646 -1049.05,306.646 -1049.05,302.684 -1052.66,302.684 
					-1071.499,302.684 -1089.524,326.666 -1098.103,326.666 -1200.97,458.99 -1193.637,458.99 -1093.706,330.875 				"/>
				<polygon fill="#BFC4BE" points="-1070.499,349.708 -1070.499,357.15 -1046.55,384.273 -1046.55,461.398 -1044.443,458.931 
					-1044.443,379.216 				"/>
				<polygon fill="#BFC4BE" points="-1071.499,459.931 -1058.034,474.673 -1048.55,463.57 -1048.55,385.65 -1071.499,359.664 				
					"/>
			</g>
		</g>
		<g display="inline">
			<g>
				<path fill="#BFC4BE" d="M-1065.274,308.768l-18.212,24.229h-8.672l-98.147,125.975l1.401,0.021l5.038-0.061h16.918l14.74-20.363
					l16.763-23.156h0.171l11.96-16.346h-0.049l48.493-66.149c1.333-1.806,2.793-4.099,4.371-6.865v20.091l14.028,16.002V308.77
					h-8.803V308.768z"/>
				<polygon fill="#BFC4BE" points="-1049.05,308.768 -1054.47,308.768 -1054.47,364.421 -1049.05,370.604 				"/>
			</g>
		</g>
		<g display="inline">
			<g>
				<polygon fill="#BFC4BE" points="-863.971,327.875 -845.758,303.646 -827.975,303.646 -827.975,299.684 -831.584,299.684 
					-850.424,299.684 -868.449,323.666 -877.027,323.666 -979.895,455.99 -972.563,455.99 -872.631,327.875 				"/>
				<polygon fill="#BFC4BE" points="-849.424,346.708 -849.424,354.15 -825.475,381.273 -825.475,458.398 -823.367,455.931 
					-823.367,376.216 				"/>
				<polygon fill="#BFC4BE" points="-850.424,456.931 -836.959,471.673 -827.475,460.57 -827.475,382.65 -850.424,356.664 				"/>
			</g>
		</g>
		<g display="inline">
			<g>
				<path fill="#BFC4BE" d="M-844.199,305.768l-18.211,24.229h-8.672l-98.148,125.975l1.402,0.021l5.037-0.061h16.918l14.74-20.363
					l16.764-23.156h0.17l11.961-16.346h-0.049l48.492-66.149c1.334-1.806,2.793-4.099,4.371-6.865v20.091l14.029,16.002V305.77
					h-8.804V305.768L-844.199,305.768z"/>
				<polygon fill="#BFC4BE" points="-827.975,305.768 -833.395,305.768 -833.395,361.421 -827.975,367.604 				"/>
			</g>
		</g>
		<rect x="-887.579" y="398.878" display="inline" fill="#BFC4BE" width="43.256" height="3.521"/>
		<rect x="-887.579" y="408.802" display="inline" fill="#BFC4BE" width="43.256" height="3.521"/>
		<rect x="-887.579" y="418.726" display="inline" fill="#BFC4BE" width="43.256" height="3.521"/>
		<g display="inline">
			<g>
				<polygon fill="#BFC4BE" points="-649.502,332.875 -631.289,308.646 -613.506,308.646 -613.506,304.684 -617.115,304.684 
					-635.955,304.684 -653.98,328.666 -662.559,328.666 -765.426,460.99 -758.094,460.99 -658.162,332.875 				"/>
				<polygon fill="#BFC4BE" points="-634.955,351.708 -634.955,359.15 -611.006,386.273 -611.006,463.398 -608.898,460.931 
					-608.898,381.216 				"/>
				<polygon fill="#BFC4BE" points="-635.955,461.931 -622.49,476.673 -613.006,465.57 -613.006,387.65 -635.955,361.664 				"/>
			</g>
		</g>
		<g display="inline">
			<g>
				<path fill="#BFC4BE" d="M-629.73,310.768l-18.211,24.229h-8.672l-98.148,125.975l1.402,0.021l5.037-0.061h16.918l14.74-20.363
					l16.764-23.156h0.17l11.961-16.346h-0.049l48.492-66.15c1.334-1.807,2.793-4.1,4.371-6.865v20.09l14.029,16.002V310.77h-8.804
					V310.768L-629.73,310.768z"/>
				<polygon fill="#BFC4BE" points="-613.506,310.768 -618.926,310.768 -618.926,366.421 -613.506,372.604 				"/>
			</g>
		</g>
		<rect x="-673.11" y="409.345" display="inline" fill="#BFC4BE" width="43.256" height="7.916"/>
		<circle display="inline" fill="#BFC4BE" cx="-1099.596" cy="630.801" r="4.772"/>
		<polyline display="inline" fill="#BFC4BE" points="-1194.285,680.265 -1180.3,680.265 -1076.074,540.117 -1087.949,544.183 
			-1189.285,680.265 		"/>
		<g display="inline">
			<polygon fill="#7B8E95" points="-1056.691,669.886 -1056.691,636.9 -1056.691,610.115 -1062.074,604.3 -1062.066,604.294 
				-1076.037,589.203 -1076.037,675.783 			"/>
			<path fill="#7B8E95" d="M-1079.982,566.533c1.204-1.629,2.521-3.697,3.945-6.193v20.504l18.292,19.758l-0.008,0.01l1.062,1.146
				v-61.59v-25.637L-1181.3,680.205h18.262l13.297-18.369l15.119-20.889h0.154l10.789-14.746h-0.045L-1079.982,566.533z"/>
			<polygon fill="#BFC4BE" points="-1052.491,680.537 -1052.491,641.074 -1056.691,636.9 -1056.691,669.886 -1076.037,675.783 
				-1093.824,681.205 -1076.037,681.205 -1058.035,681.205 -1056.691,681.205 -1052.491,681.205 -1052.324,681.205 			"/>
		</g>
		<polygon display="inline" fill="#BFC4BE" points="-1111.678,617.529 -1138.179,617.529 -1134.429,612.529 -1112.991,612.529 		"/>
		<polygon display="inline" fill="#BFC4BE" points="-1111.678,617.529 -1115.015,613.562 -1071.574,553.685 -1071.574,561.529 		"/>
		<rect x="-1076.574" y="561.529" display="inline" fill="#BFC4BE" width="5" height="19"/>
		<polygon display="inline" fill="#BFC4BE" points="-1054.209,604.591 -1076.574,580.529 -1072.904,577.132 -1056.691,594.646 		"/>
		<g display="inline">
			<g>
				<polygon fill="#7B8E95" points="-844.424,595.646 -844.424,680.705 -843.618,680.705 -831.237,680.705 -831.237,609.615 				"/>
				<path fill="#7B8E95" d="M-832.3,600.109l1.063,1.145v-61.588v-25.639l-124.61,165.678h18.262l13.297-18.371l15.119-20.887h0.154
					l10.789-14.746h-0.045l43.743-59.668c1.203-1.629,2.521-3.699,3.945-6.193v20.502l18.291,19.76L-832.3,600.109z"/>
			</g>
		</g>
		<circle display="inline" fill="#7B8E95" cx="-869.371" cy="630.301" r="4.772"/>
		<polyline display="inline" fill="#BFC4BE" points="-954.848,679.765 -850.62,539.617 -880.304,546.486 -979.88,679.705 		"/>
		<g display="inline">
			<g>
				<polygon fill="#BFC4BE" points="-831.474,636.166 -827.038,640.574 -827.038,680.705 -832.581,680.705 				"/>
				<polygon fill="#BFC4BE" points="-827.87,680.705 -869.37,680.705 -831.704,657.195 				"/>
			</g>
		</g>
		<polygon display="inline" fill="#BFC4BE" points="-886.166,616.966 -921.263,630.978 -911.614,621.632 -889.231,612.804 		"/>
		<polygon display="inline" fill="#BFC4BE" points="-886.166,616.966 -889.231,612.804 -846.12,553.185 -846.12,561.029 		"/>
		<rect x="-851.12" y="561.029" display="inline" fill="#BFC4BE" width="5" height="19"/>
		<polygon display="inline" fill="#BFC4BE" points="-828.757,604.091 -851.12,580.029 -847.45,576.632 -831.237,594.146 		"/>
		
			<line display="inline" fill="none" stroke="#A6B6BC" stroke-miterlimit="10" x1="-965.848" y1="679.765" x2="-864.106" y2="542.96"/>
		
			<line display="inline" fill="none" stroke="#A6B6BC" stroke-miterlimit="10" x1="-860.37" y1="680.705" x2="-827.033" y2="659.896"/>
		
			<line display="inline" fill="none" stroke="#A6B6BC" stroke-miterlimit="10" x1="-850.62" y1="680.591" x2="-827.078" y2="665.896"/>
		<g display="inline">
			<g>
				<polygon fill="#7B8E95" points="-630.434,588.642 -630.434,673.699 -629.628,673.699 -617.247,673.699 -617.247,602.609 				"/>
				<path fill="#7B8E95" d="M-618.31,593.103l1.063,1.146v-61.59v-25.641l-124.61,165.68h18.262l13.297-18.369l15.119-20.889h0.154
					l10.789-14.746h-0.045l43.743-59.668c1.203-1.629,2.521-3.697,3.945-6.193v20.504l18.291,19.758L-618.31,593.103z"/>
			</g>
		</g>
		<polyline display="inline" fill="#BFC4BE" points="-740.857,672.759 -636.63,532.611 -666.313,539.48 -765.89,672.699 		"/>
		<g display="inline">
			<g>
				<polygon fill="#BFC4BE" points="-617.483,629.16 -613.048,633.568 -613.048,673.699 -618.591,673.699 				"/>
				<polygon fill="#BFC4BE" points="-613.88,673.699 -655.38,673.699 -617.714,650.189 				"/>
			</g>
		</g>
		<polygon display="inline" fill="#BFC4BE" points="-672.176,609.96 -707.272,623.974 -697.624,614.626 -675.241,605.798 		"/>
		<polygon display="inline" fill="#BFC4BE" points="-672.176,609.96 -675.241,605.798 -632.13,546.179 -632.13,554.021 		"/>
		<rect x="-637.13" y="554.021" display="inline" fill="#BFC4BE" width="5" height="19"/>
		<polygon display="inline" fill="#BFC4BE" points="-614.767,597.085 -637.13,573.021 -633.46,569.626 -617.247,587.14 		"/>
		
			<line display="inline" fill="none" stroke="#A6B6BC" stroke-miterlimit="10" x1="-751.857" y1="672.759" x2="-650.116" y2="535.955"/>
		
			<line display="inline" fill="none" stroke="#A6B6BC" stroke-miterlimit="10" x1="-646.38" y1="673.699" x2="-613.043" y2="652.892"/>
		
			<line display="inline" fill="none" stroke="#A6B6BC" stroke-miterlimit="10" x1="-636.63" y1="673.585" x2="-613.088" y2="658.89"/>
		<rect x="-673.11" y="621.57" display="inline" fill="#7B8E95" width="43.256" height="7.916"/>
		<g display="inline">
			<polygon fill="#7B8E95" points="-431.515,328.074 -413.302,303.846 -395.519,303.846 -395.519,299.883 -399.128,299.883 
				-417.968,299.883 -435.993,323.865 -444.571,323.865 -547.438,456.187 -540.106,456.187 -440.175,328.074 			"/>
			<polygon fill="#7B8E95" points="-416.968,346.908 -416.968,354.352 -393.019,381.473 -393.019,458.597 -390.911,456.13 
				-390.911,376.416 			"/>
			<polygon fill="#BFC4BE" points="-417.968,457.13 -404.503,471.873 -395.019,460.769 -395.019,382.852 -417.968,356.861 			"/>
		</g>
		<g display="inline">
			<g>
				<path fill="#BFC4BE" d="M-411.743,305.966l-18.211,24.228h-8.672l-98.148,125.978l1.402,0.021l5.037-0.061h16.918l14.74-20.367
					l16.764-23.152h0.17l11.961-16.35h-0.049l48.492-66.146c1.334-1.807,2.793-4.1,4.371-6.865v20.089l14.029,16.002V305.97h-8.804
					V305.966L-411.743,305.966z"/>
				<polygon fill="#BFC4BE" points="-395.519,305.966 -400.938,305.966 -400.938,361.621 -395.519,367.805 				"/>
			</g>
		</g>
		<rect x="-455.123" y="404.544" display="inline" fill="#BFC4BE" width="43.256" height="7.916"/>
		<g display="inline">
			<g>
				<polyline fill="#7B8E95" points="-485.038,623.183 -467.138,578.234 -467.138,520.826 -531.637,675.783 -506.037,675.783 
					-485.038,623.183 				"/>
				<polyline fill="#7B8E95" points="-438.638,643.984 -431.269,662.585 -450.054,675.783 -400.639,675.783 -465.038,520.585 
					-465.138,520.826 -465.138,578.234 -465.038,577.984 -447.038,623.183 				"/>
			</g>
		</g>
		<polygon display="inline" fill="#BFC4BE" points="-450.97,621.146 -490.95,621.146 -490.95,619.146 -451.766,619.146 		"/>
		<polygon display="inline" fill="#BFC4BE" points="-444.012,642.523 -502.054,642.523 -502.054,640.523 -444.846,640.523 		"/>
		<polygon display="inline" fill="#BFC4BE" points="-447.058,631.935 -498.188,631.935 -498.188,629.935 -447.85,629.935 		"/>
		<circle display="inline" fill="#FFFFFF" cx="-494.386" cy="619.145" r="4.001"/>
		<circle display="inline" fill="#FFFFFF" cx="-498.887" cy="629.934" r="4.001"/>
		<circle display="inline" fill="#FFFFFF" cx="-502.889" cy="640.522" r="4.001"/>
		<polygon display="inline" fill="#8897A3" points="-236.253,622.322 -276.233,622.322 -276.233,620.322 -237.049,620.322 		"/>
		<polygon display="inline" fill="#8897A3" points="-229.295,643.699 -287.337,643.699 -287.337,641.699 -230.129,641.699 		"/>
		<polygon display="inline" fill="#8897A3" points="-232.341,633.111 -283.472,633.111 -283.472,631.111 -233.133,631.111 		"/>
		<circle display="inline" fill="#8897A3" cx="-279.669" cy="620.321" r="4.001"/>
		<circle display="inline" fill="#8897A3" cx="-284.17" cy="631.11" r="4.001"/>
		<circle display="inline" fill="#8897A3" cx="-288.172" cy="641.698" r="4.001"/>
		<g display="inline">
			<polygon fill="#7B8E95" points="-291.32,676.958 -279.22,646.646 -282.449,646.646 -293.353,673.958 -312.422,673.958 
				-255.421,537.015 -255.421,578.833 -270.629,617.021 -267.399,617.021 -252.421,579.41 -252.421,522 -316.92,676.958 			"/>
			<polygon fill="#7B8E95" points="-185.922,676.958 -250.321,521.761 -250.421,522 -250.421,579.41 -250.321,579.16 
				-232.321,624.359 -223.921,645.158 -216.552,663.759 -235.337,676.958 			"/>
		</g>
		<g display="inline">
			<g>
				<polyline fill="#7B8E95" points="-1120.748,837.113 -1102.848,792.164 -1102.848,734.755 -1167.347,889.712 -1141.747,889.712 
					-1120.748,837.113 				"/>
			</g>
		</g>
		<g display="inline">
			<polygon fill="#BFC4BE" points="-1130.499,835.076 -1082.083,835.076 -1082.88,833.076 -1129.703,833.076 			"/>
			<polygon fill="#BFC4BE" points="-1138.233,854.453 -1139.031,856.453 -1073.534,856.453 -1074.334,854.453 			"/>
			<polygon fill="#BFC4BE" points="-1134.805,845.865 -1077.772,845.865 -1078.572,843.865 -1134.006,843.865 			"/>
			<polygon fill="#BFC4BE" points="-1094.278,804.457 -1095.074,802.457 -1117.509,802.457 -1118.305,804.457 			"/>
			<polygon fill="#BFC4BE" points="-1126.818,825.833 -1085.765,825.833 -1086.561,823.833 -1126.022,823.833 			"/>
			<polygon fill="#BFC4BE" points="-1122.602,815.246 -1089.981,815.246 -1090.777,813.246 -1121.805,813.246 			"/>
		</g>
		<circle display="inline" fill="#7B8E95" cx="-1078.878" cy="833.077" r="4.001"/>
		<circle display="inline" fill="#7B8E95" cx="-1074.68" cy="843.866" r="4.001"/>
		<circle display="inline" fill="#7B8E95" cx="-1070.678" cy="854.452" r="4.001"/>
		<circle display="inline" fill="#7B8E95" cx="-1091.277" cy="802.456" r="4.001"/>
		<circle display="inline" fill="#7B8E95" cx="-1086.881" cy="813.245" r="4.001"/>
		<circle display="inline" fill="#7B8E95" cx="-1082.88" cy="823.833" r="4.001"/>
		<polyline display="inline" fill="#BFC4BE" points="-1129.579,836.994 -1111.678,792.044 -1111.678,734.636 -1176.177,889.593 
			-1150.578,889.593 -1129.579,836.994 		"/>
		<polygon display="inline" fill="#BFC4BE" points="-929.929,897.396 -956.679,897.396 -901.456,742.943 -879.263,754.96 		"/>
		<polygon display="inline" fill="#7B8E95" points="-972.941,814.628 -953.898,807.623 -963.887,791.228 -829.968,842.841 
			-812.957,876.255 		"/>
		<polygon display="inline" fill="#7B8E95" points="-847.104,897.396 -820.271,897.396 -873.732,746.539 -901.456,742.943 		"/>
		<polygon display="inline" fill="#BFC4BE" points="-606.515,895.091 -633.07,895.091 -614.504,843.06 -598.731,873.253 		"/>
		<polygon display="inline" fill="#BFC4BE" points="-715.861,895.091 -742.611,895.091 -687.389,740.638 -665.195,752.656 		"/>
		<g display="inline">
			<path fill="#7B8E95" d="M-772.165,813.791c6.802-3.912,13.755-7.658,20.854-11.227c-4.839-4.727-9.818-9.369-14.938-13.932
				c58.016,6.123,111.136,23.695,156.657,49.209c4.128,11.766,7.748,23.576,10.859,35.408
				C-646.982,841.646-706.203,819.869-772.165,813.791z"/>
		</g>
		<g display="inline">
			<polygon fill="#7B8E95" points="-633.037,895.091 -606.204,895.091 -659.665,744.234 -687.389,740.638 			"/>
		</g>
		<path display="inline" fill="#7B8E95" d="M-465.085,821.224c0,4.479-3.631,8.109-8.109,8.109l0,0
			c-4.479,0-8.109-3.631-8.109-8.109l0,0c0-4.479,3.631-8.107,8.109-8.107l0,0C-468.716,813.115-465.085,816.746-465.085,821.224
			L-465.085,821.224z"/>
		<g display="inline">
			<path fill="#7B8E95" d="M-493.497,744.595l13.756-9.449c-1.855-2.063-0.251-1.125-2.167-3.416
				c-74.876,36.498-70.434,116.939-22.027,149.834c3.4,0,6.802,0,10.202,0C-541.899,848.595-541.823,777.437-493.497,744.595z"/>
			<path fill="#BFC4BE" d="M-457.701,740.792l-22.602-5.229l-12.952,8.861l-0.242,0.166c-48.326,32.842-48.402,104-0.236,136.971
				c0.08,0.057,0.156,0.109,0.236,0.166c10.064,0,25.596,0.168,35.66,0.168C-506.243,849-519.429,785.646-457.701,740.792z"/>
		</g>
		<polygon display="inline" fill="#7B8E95" points="-386.702,881.896 -418.911,881.896 -481.908,731.728 -443.429,740.853 		"/>
	</g>
</g>
<g id="Layer_2">
	<g>
		<path d="M275.057,440.734c10.438-17.02,17.685-29.689,21.695-37.932l-60.021,34.654c-4.707,2.717-10.064,4.152-15.5,4.152
			s-10.794-1.438-15.5-4.152l-58.075-33.529l-18.086,15.662l50.021,43.318c35.939-6.064,89.949-15.938,93.285-18.59
			C273.195,443.767,273.966,442.509,275.057,440.734z"/>
		<path d="M276.761,441.781c-1.13,1.842-1.911,3.113-2.196,3.609c-0.518,0.906-1.479,2.594-48.639,11.342
			c-12.971,2.404-25.958,4.691-34.893,6.24h90.385l50.096-43.383l-25.535-22.113l-6.213,3.59
			C295.182,411.296,285.532,427.484,276.761,441.781z"/>
		<path d="M365.974,233.104c4.543-0.002,8.494,2.521,10.532,6.242l0.471-12.868c-0.001-5.969-4.838-10.866-10.818-10.962
			L225.874,268.93l-0.19-0.5L74.825,215.517c-5.989,0.089-10.833,4.989-10.833,10.999l0.273,10.014l1.422,1
			c2.2-2.7,5.55-4.427,9.305-4.427l151.46,53.125L365.974,233.104z"/>
		<path d="M61.992,226.543c0-7.196,5.832-13.027,13-13.027h0.17l0.161,0.056l151.114,53.004l139.354-53.06h0.184
			c7.168,0,13,5.832,13,13l-0.514,14.044l27.388-19.248V120.347c0-10.328-5.556-19.951-14.5-25.114L320.05,54.069l17.563-11.502
			c-11.284-4.978-76.41-33.385-106.277-39.247l-0.15-0.042c-3.209-1.173-6.565-1.768-9.981-1.768c-5.076,0-10.081,1.34-14.473,3.876
			L51.109,95.232c-8.944,5.164-14.5,14.787-14.5,25.115v96.748l25.616,18.001L61.992,226.543z"/>
		<path d="M405.85,228.178l-27.771,22.957l-0.103,2.715v55.377c0,6.627-3.368,8.328-12,12L226.453,375.21l-151.46-53.983
			c-8.1-3.164-12-5.373-12-12v-46.043l-0.518-18.957l-25.865-21.38v77.195c0,10.806,5.779,40.804,14.5,45.836l155.62,89.848
			c4.402,2.541,9.417,3.887,14.5,3.887s10.098-1.346,14.5-3.887l155.618-89.848c8.724-5.034,14.5-35.03,14.5-45.836L405.85,228.178
			L405.85,228.178z"/>
		<path d="M247.346,333.92c-1.063-1.936-1.83-3.393-2.111-4.047c0.545-2.175,5.375-11.871,10.478-19.479l-3.319-2.229
			c-3.457,5.155-11.646,19.349-11.158,22.274c0.176,1.05,2.893,6.117,8.066,15.057l3.387,7.98l188.258-155.602L247.346,333.92z"/>
		<path d="M132.738,302.302c2.293,8.532,10.667,36.306,23.067,38.563c5.779,1.051,15.258,0.582,20.286-2.729l-11.428-9.444
			c-1.046,0.889-2.398,1.425-3.877,1.425c-3.314,0-6-2.688-6-6c0-1.071,0.284-2.075,0.777-2.946L132.738,302.302z"/>
		<polygon points="206.367,337.609 10.493,199.964 198.755,355.568 		"/>
		<path d="M223.391,350.652c1.725-3.072,2.886-3.264,3.191-3.248c0.996,0.047,2.314,1.82,2.883,3.078l0.813,1.83l3.658-1.621
			l-0.813-1.828c-0.238-0.537-2.443-5.27-6.35-5.451c-2.573-0.117-4.835,1.658-6.871,5.281l-0.979,1.744l3.488,1.959
			L223.391,350.652z"/>
		<path d="M286.786,330.111c-1.163,0-2.244-0.336-3.164-0.907l-11.368,9.396c5.18,2.887,14.018,3.262,19.514,2.264
			c11.778-2.143,19.925-27.303,22.676-37.131l-22.061,18.23c0.258,0.668,0.403,1.393,0.403,2.148
			C292.786,327.425,290.1,330.111,286.786,330.111z"/>
		<path fill="#020202" d="M204.931,579.388v-15.486c13.569-7.992,37.314-23.887,38.481-24.668c2.244-1.504,3.324-4.238,2.713-6.871
			c-0.346-1.484-3.68-14.645-14.416-19.314c-4.313-1.877-11.421-2.982-20.785,2.4c-9.01,5.182-19.815,12.15-20.271,12.443
			c-1.51,0.977-2.022,2.002-2.148,3.52l-0.04,0.008l-0.135,63.098c0.132,2.938,1.805,5.604,4.424,6.982
			c1.214,0.639,2.544,0.955,3.87,0.955c1.213,0,2.423-0.268,3.539-0.793l46.665-31.984l-0.038-18.977L204.931,579.388z
			 M204.931,534.242c3.796-2.5,7.992-5.479,12.135-8.316c3.561-2.439,6.029-4.133,9.653-2.611c2.442,1.023,3.853,5.049,5.042,7.539
			c-6.086,4.035-17.432,12.555-26.83,18.391V534.242L204.931,534.242z"/>
		<path fill="#020202" d="M160.706,524.511c-4.353,1.99-10.909,5.104-17.619,8.713c-22.431,12.074-26.395,18.801-27.313,23.785
			c-2.104,11.414-1.636,37.523-1.615,38.629l0.13,6.867h46.417v7.201L84.089,662.22v19.574l89.622-61.313
			c2.259-1.551,3.609-4.111,3.609-6.854V499.259l-16.614,11.949V524.511z M128.1,588.505c0-9.053,0.261-22.301,1.405-28.754
			c1.78-3.729,15.226-12.135,31.201-19.818v48.572H128.1z"/>
		<polygon fill="#020202" points="258.145,604.523 274.757,604.539 274.79,560.228 258.165,571.623 		"/>
		<path fill="#020202" d="M303.697,516.224c-2.697-1.445-5.446-0.771-7.998,0.926l-14.125,9.813l-6.747,4.689v-4.689v-26.113
			l-16.597,11.609l-0.014,14.504l-0.033,34.891l33.258-22.822v0.027l-0.022,20.154l-0.049,45.313l16.614,0.018l0.061-56.725
			l0.022-20.156l0.001-0.697l0.003-3.414C308.076,520.49,306.393,517.673,303.697,516.224z"/>
		<path fill="#020202" d="M356.873,473.337v2.266c-7.085,4.816-35.666,24.092-35.666,24.092v20.225l35.666-24.723v1.332v15.572
			v3.236v11.625v58.928c-5.801,0.58-11.159,0.604-13.241-0.033c-6.643-3.814-7.014-41.092-6.495-58.895
			c0.129-4.43,0.313-7.658,0.47-8.859l-12.859,8.859l-3.295,2.271c-0.174,3.568-0.229,16.924-0.241,18.887
			c-0.093,15.051,1.327,41.715,11.896,51.219c3.271,2.943,8.307,4.324,16.004,4.324c1.597,0,3.312-0.059,5.146-0.176
			c6.399-0.41,12.07-1.404,12.31-1.447c3.997-0.705,6.921-4.316,6.921-8.545v-66.531v-23.014v-20.143V381.666l-16.612,11.276v80.396
			H356.873z"/>
		<polygon fill="#020202" points="383.869,476.691 400.483,465.304 400.483,445.355 383.869,456.744 		"/>
		<path fill="#020202" d="M400.483,565.492v-38.529v-51.898l-16.614,11.387v40.514v67.646c0,3.711,2.462,6.971,6.027,7.988
			c0.756,0.213,1.522,0.318,2.277,0.318c2.821,0,5.517-1.439,7.06-3.926l22.978-36.414l-19.979,0.102L400.483,565.492z"/>
		<path d="M85.383,535.939l0.354,66.516h18l-0.426-78.479l27.395-18.279l-0.631-21.219l-26.88,17.938l-0.659-121.436L-8.75,602.455
			h19.643l12.346-25.049L85.383,535.939z M85.268,514.376l-46.135,30.785l45.805-92.928L85.268,514.376z"/>
	</g>
</g>
</svg>
